<?xml version="1.0" encoding="UTF-8" standalone="no"?>
<!DOCTYPE svg PUBLIC "-//W3C//DTD SVG 1.1//EN"
 "http://www.w3.org/Graphics/SVG/1.1/DTD/svg11.dtd">
<!-- Generated by graphviz version 2.49.1 (20210923.0004)
 -->
<!-- Pages: 1 -->
<svg width="1237pt" height="686pt"
 viewBox="0.00 0.00 1237.00 686.00" xmlns="http://www.w3.org/2000/svg" xmlns:xlink="http://www.w3.org/1999/xlink">
<g id="graph0" class="graph" transform="scale(1 1) rotate(0) translate(4 682)">
<polygon fill="white" stroke="transparent" points="-4,4 -4,-682 1233,-682 1233,4 -4,4"/>
<text text-anchor="start" x="356.5" y="-11.8" font-family="Arial" font-size="34.00">VM&#45;Lets &#45; Deployment &#45; Phase 2A</text>
<g id="clust1" class="cluster">
<title>cluster_19</title>
<polygon fill="none" stroke="#888888" points="8,-64 8,-670 1221,-670 1221,-64 8,-64"/>
<text text-anchor="start" x="586" y="-92.8" font-family="Arial" font-size="24.00" fill="#000000">EPIC</text>
<text text-anchor="start" x="533" y="-72.8" font-family="Arial" font-size="19.00" fill="#000000">[Deployment Node]</text>
</g>
<g id="clust2" class="cluster">
<title>cluster_20</title>
<polygon fill="none" stroke="#888888" points="932,-216 932,-414 1196,-414 1196,-216 932,-216"/>
<text text-anchor="start" x="1050.5" y="-244.8" font-family="Arial" font-size="24.00" fill="#000000">L1</text>
<text text-anchor="start" x="982.5" y="-224.8" font-family="Arial" font-size="19.00" fill="#000000">[Deployment Node]</text>
</g>
<g id="clust3" class="cluster">
<title>cluster_22</title>
<polygon fill="none" stroke="#888888" points="33,-140 33,-645 907,-645 907,-140 33,-140"/>
<text text-anchor="start" x="335.5" y="-168.8" font-family="Arial" font-size="24.00" fill="#000000">Service Delivery Network</text>
<text text-anchor="start" x="388.5" y="-148.8" font-family="Arial" font-size="19.00" fill="#000000">[Deployment Node]</text>
</g>
<g id="clust4" class="cluster">
<title>cluster_27</title>
<polygon fill="none" stroke="#888888" points="607,-216 607,-414 871,-414 871,-216 607,-216"/>
<text text-anchor="start" x="725.5" y="-244.8" font-family="Arial" font-size="24.00" fill="#000000">L0</text>
<text text-anchor="start" x="657.5" y="-224.8" font-family="Arial" font-size="19.00" fill="#000000">[Deployment Node]</text>
</g>
<g id="clust5" class="cluster">
<title>cluster_23</title>
<polygon fill="none" stroke="#888888" points="58,-422 58,-620 882,-620 882,-422 58,-422"/>
<text text-anchor="start" x="425" y="-450.8" font-family="Arial" font-size="24.00" fill="#000000">VM&#45;Lets</text>
<text text-anchor="start" x="388.5" y="-430.8" font-family="Arial" font-size="19.00" fill="#000000">[Deployment Node]</text>
</g>
<!-- 21 -->
<g id="21" class="node">
<title>21</title>
<polygon fill="#1168bd" stroke="#0b4884" points="1170.5,-389 957.5,-389 957.5,-292 1170.5,-292 1170.5,-389"/>
<text text-anchor="start" x="996.5" y="-340.8" font-family="Arial" font-size="34.00" fill="#ffffff">Ledger 1</text>
<text text-anchor="start" x="986.5" y="-318.8" font-family="Arial" font-size="19.00" fill="#ffffff">[Software System]</text>
</g>
<!-- 28 -->
<g id="28" class="node">
<title>28</title>
<polygon fill="#1168bd" stroke="#0b4884" points="845.5,-389 632.5,-389 632.5,-292 845.5,-292 845.5,-389"/>
<text text-anchor="start" x="671.5" y="-340.8" font-family="Arial" font-size="34.00" fill="#ffffff">Ledger 0</text>
<text text-anchor="start" x="661.5" y="-318.8" font-family="Arial" font-size="19.00" fill="#ffffff">[Software System]</text>
</g>
<!-- 26 -->
<g id="26" class="node">
<title>26</title>
<polygon fill="#438dd5" stroke="#2e6295" points="857,-595 621,-595 621,-498 857,-498 857,-595"/>
<text text-anchor="start" x="650" y="-546.8" font-family="Arial" font-size="34.00" fill="#ffffff">BigchainDB</text>
<text text-anchor="start" x="692.5" y="-524.8" font-family="Arial" font-size="19.00" fill="#ffffff">[Container]</text>
</g>
<!-- 26&#45;&gt;21 -->
<g id="29" class="edge">
<title>26&#45;&gt;21</title>
<path fill="none" stroke="#707070" d="M907,-440.05C918.05,-433.11 929.07,-426.19 939.85,-419.43"/>
<polygon fill="#707070" stroke="#707070" points="941.89,-422.28 948.5,-414 938.17,-416.35 941.89,-422.28"/>
</g>
<!-- 26&#45;&gt;28 -->
<g id="30" class="edge">
<title>26&#45;&gt;28</title>
<path fill="none" stroke="#707070" d="M739,-422C739,-420 739,-418 739,-416"/>
<polygon fill="#707070" stroke="#707070" points="742.5,-424 739,-414 735.5,-424 742.5,-424"/>
</g>
<!-- 25 -->
<g id="25" class="node">
<title>25</title>
<polygon fill="#438dd5" stroke="#2e6295" points="549,-595 351,-595 351,-498 549,-498 549,-595"/>
<text text-anchor="start" x="380" y="-546.8" font-family="Arial" font-size="34.00" fill="#ffffff">Tarantool</text>
<text text-anchor="start" x="403.5" y="-524.8" font-family="Arial" font-size="19.00" fill="#ffffff">[Container]</text>
</g>
<!-- 24 -->
<g id="24" class="node">
<title>24</title>
<polygon fill="#438dd5" stroke="#2e6295" points="278.5,-595 83.5,-595 83.5,-498 278.5,-498 278.5,-595"/>
<text text-anchor="start" x="112.5" y="-546.8" font-family="Arial" font-size="34.00" fill="#ffffff">Zenroom</text>
<text text-anchor="start" x="134.5" y="-524.8" font-family="Arial" font-size="19.00" fill="#ffffff">[Container]</text>
</g>
</g>
</svg>
