<?xml version="1.0" encoding="UTF-8" standalone="no"?>
<!DOCTYPE svg PUBLIC "-//W3C//DTD SVG 1.1//EN"
 "http://www.w3.org/Graphics/SVG/1.1/DTD/svg11.dtd">
<!-- Generated by graphviz version 2.49.1 (20210923.0004)
 -->
<!-- Pages: 1 -->
<svg width="700pt" height="882pt"
 viewBox="0.00 0.00 700.00 882.00" xmlns="http://www.w3.org/2000/svg" xmlns:xlink="http://www.w3.org/1999/xlink">
<g id="graph0" class="graph" transform="scale(1 1) rotate(0) translate(4 878)">
<polygon fill="white" stroke="transparent" points="-4,4 -4,-878 696,-878 696,4 -4,4"/>
<text text-anchor="start" x="147.5" y="-11.8" font-family="Arial" font-size="34.00">VM&#45;Lets &#45; System Context</text>
<g id="clust1" class="cluster">
<title>cluster_enterprise</title>
<polygon fill="none" stroke="#444444" points="8,-64 8,-866 684,-866 684,-64 8,-64"/>
<text text-anchor="start" x="291.5" y="-92.8" font-family="Arial" font-size="24.00" fill="#444444">Zenbridge</text>
<text text-anchor="start" x="297" y="-72.8" font-family="Arial" font-size="19.00" fill="#444444">[Enterprise]</text>
</g>
<g id="clust2" class="cluster">
<title>cluster_group_EBSI</title>
<polygon fill="none" stroke="#cccccc" points="33,-164 33,-841 420,-841 420,-164 33,-164"/>
<text text-anchor="start" x="199" y="-192.8" font-family="Arial" font-size="24.00" fill="#cccccc">EBSI</text>
<text text-anchor="start" x="194.5" y="-172.8" font-family="Arial" font-size="19.00" fill="#cccccc">[Group]</text>
</g>
<!-- 1 -->
<g id="1" class="node">
<title>1</title>
<polygon fill="#1168bd" stroke="#0b4884" points="272.5,-361 59.5,-361 59.5,-264 272.5,-264 272.5,-361"/>
<text text-anchor="start" x="98.5" y="-312.8" font-family="Arial" font-size="34.00" fill="#ffffff">Ledger 0</text>
<text text-anchor="start" x="88.5" y="-290.8" font-family="Arial" font-size="19.00" fill="#ffffff">[Software System]</text>
</g>
<!-- 2 -->
<g id="2" class="node">
<title>2</title>
<polygon fill="#1168bd" stroke="#0b4884" points="394.5,-621 181.5,-621 181.5,-524 394.5,-524 394.5,-621"/>
<text text-anchor="start" x="224.5" y="-572.8" font-family="Arial" font-size="34.00" fill="#ffffff">VM&#45;Lets</text>
<text text-anchor="start" x="210.5" y="-550.8" font-family="Arial" font-size="19.00" fill="#ffffff">[Software System]</text>
</g>
<!-- 2&#45;&gt;1 -->
<g id="10" class="edge">
<title>2&#45;&gt;1</title>
<path fill="none" stroke="#707070" stroke-dasharray="5,2" d="M195.89,-523.82C183.88,-513.64 173.24,-501.74 166,-488 147.29,-452.51 147.93,-407.05 152.92,-371.42"/>
<polygon fill="#707070" stroke="#707070" points="156.43,-371.59 154.51,-361.18 149.52,-370.52 156.43,-371.59"/>
<text text-anchor="start" x="194" y="-469.8" font-family="Arial" font-size="24.00" fill="#707070">Retrives the last</text>
<text text-anchor="start" x="166" y="-445.8" font-family="Arial" font-size="24.00" fill="#707070">transaction at a given</text>
<text text-anchor="start" x="225" y="-421.8" font-family="Arial" font-size="24.00" fill="#707070">timestamp</text>
<text text-anchor="start" x="239" y="-401.8" font-family="Arial" font-size="19.00" fill="#707070">[json/http]</text>
</g>
<!-- 8 -->
<g id="8" class="node">
<title>8</title>
<polygon fill="#1168bd" stroke="#0b4884" points="658.5,-361 445.5,-361 445.5,-264 658.5,-264 658.5,-361"/>
<text text-anchor="start" x="484.5" y="-312.8" font-family="Arial" font-size="34.00" fill="#ffffff">Ledger 1</text>
<text text-anchor="start" x="474.5" y="-290.8" font-family="Arial" font-size="19.00" fill="#ffffff">[Software System]</text>
</g>
<!-- 2&#45;&gt;8 -->
<g id="9" class="edge">
<title>2&#45;&gt;8</title>
<path fill="none" stroke="#707070" stroke-dasharray="5,2" d="M368.64,-523.91C384.15,-513.06 399.69,-500.9 413,-488 448.69,-453.41 447.03,-435.87 478,-397 485.35,-387.77 493.4,-378.2 501.39,-368.98"/>
<polygon fill="#707070" stroke="#707070" points="504.13,-371.16 508.08,-361.33 498.86,-366.56 504.13,-371.16"/>
</g>
<!-- 7 -->
<g id="7" class="node">
<title>7</title>
<polygon fill="#1168bd" stroke="#0b4884" points="332.5,-816 119.5,-816 119.5,-719 332.5,-719 332.5,-816"/>
<text text-anchor="start" x="198.5" y="-767.8" font-family="Arial" font-size="34.00" fill="#ffffff">API</text>
<text text-anchor="start" x="148.5" y="-745.8" font-family="Arial" font-size="19.00" fill="#ffffff">[Software System]</text>
</g>
<!-- 7&#45;&gt;2 -->
<g id="12" class="edge">
<title>7&#45;&gt;2</title>
<path fill="none" stroke="#707070" stroke-dasharray="5,2" d="M137.42,-718.88C116.05,-701 102.93,-679.52 117,-657 130.15,-635.94 150.32,-620.05 172.24,-608.11"/>
<polygon fill="#707070" stroke="#707070" points="174.11,-611.09 181.39,-603.4 170.9,-604.87 174.11,-611.09"/>
<text text-anchor="start" x="117" y="-663.8" font-family="Arial" font-size="24.00" fill="#707070">Schedule</text>
</g>
<!-- 7&#45;&gt;2 -->
<g id="13" class="edge">
<title>7&#45;&gt;2</title>
<path fill="none" stroke="#707070" stroke-dasharray="5,2" d="M241.33,-718.79C249.86,-692.23 260.54,-658.98 269.53,-630.99"/>
<polygon fill="#707070" stroke="#707070" points="272.91,-631.92 272.64,-621.33 266.24,-629.78 272.91,-631.92"/>
<text text-anchor="start" x="261" y="-663.8" font-family="Arial" font-size="24.00" fill="#707070">Execute</text>
</g>
<!-- 8&#45;&gt;2 -->
<g id="11" class="edge">
<title>8&#45;&gt;2</title>
<path fill="none" stroke="#707070" stroke-dasharray="5,2" d="M546.49,-361.28C539.72,-399.87 524.77,-453.29 492,-488 468.33,-513.07 436.04,-530.84 404.15,-543.34"/>
<polygon fill="#707070" stroke="#707070" points="402.85,-540.09 394.72,-546.89 405.31,-546.64 402.85,-540.09"/>
</g>
</g>
</svg>
