<?xml version="1.0" encoding="UTF-8" standalone="no"?>
<!DOCTYPE svg PUBLIC "-//W3C//DTD SVG 1.1//EN"
 "http://www.w3.org/Graphics/SVG/1.1/DTD/svg11.dtd">
<!-- Generated by graphviz version 2.49.1 (20210923.0004)
 -->
<!-- Pages: 1 -->
<svg width="1410pt" height="223pt"
 viewBox="0.00 0.00 1410.00 223.00" xmlns="http://www.w3.org/2000/svg" xmlns:xlink="http://www.w3.org/1999/xlink">
<g id="graph0" class="graph" transform="scale(1 1) rotate(0) translate(4 219)">
<polygon fill="white" stroke="transparent" points="-4,4 -4,-219 1406,-219 1406,4 -4,4"/>
<text text-anchor="start" x="399.5" y="-11.8" font-family="Arial" font-size="34.00">Use case Steel Material Passport: Store</text>
<!-- 4 -->
<g id="4" class="node">
<title>4</title>
<polygon fill="#08427b" stroke="#052e56" points="247,-184 0,-184 0,-87 247,-87 247,-184"/>
<text text-anchor="start" x="29" y="-135.8" font-family="Arial" font-size="34.00" fill="#ffffff">Manifacturer</text>
<text text-anchor="start" x="88" y="-113.8" font-family="Arial" font-size="19.00" fill="#ffffff">[Person]</text>
</g>
<!-- 6 -->
<g id="6" class="node">
<title>6</title>
<polygon fill="#1168bd" stroke="#0b4884" points="931,-215 574,-215 574,-56 931,-56 931,-215"/>
<text text-anchor="start" x="689" y="-166.8" font-family="Arial" font-size="34.00" fill="#ffffff">VM&#45;Lets</text>
<text text-anchor="start" x="675" y="-144.8" font-family="Arial" font-size="19.00" fill="#ffffff">[Software System]</text>
<text text-anchor="start" x="603" y="-107.8" font-family="Arial" font-size="24.00" fill="#ffffff">Programmable and scalable</text>
<text text-anchor="start" x="678" y="-83.8" font-family="Arial" font-size="24.00" fill="#ffffff">execution unit</text>
</g>
<!-- 4&#45;&gt;6 -->
<g id="44" class="edge">
<title>4&#45;&gt;6</title>
<path fill="none" stroke="#707070" d="M247.25,-135.5C337.3,-135.5 461.23,-135.5 563.69,-135.5"/>
<polygon fill="#707070" stroke="#707070" points="563.85,-139 573.85,-135.5 563.85,-132 563.85,-139"/>
<text text-anchor="start" x="283" y="-194.3" font-family="Arial" font-size="24.00" fill="#707070">1. Requests to store the</text>
<text text-anchor="start" x="307.5" y="-168.3" font-family="Arial" font-size="24.00" fill="#707070">information about a</text>
<text text-anchor="start" x="294" y="-142.3" font-family="Arial" font-size="24.00" fill="#707070">material on the ledger</text>
</g>
<!-- 5 -->
<g id="5" class="node">
<title>5</title>
<polygon fill="#1168bd" stroke="#0b4884" points="1402,-184 1189,-184 1189,-87 1402,-87 1402,-184"/>
<text text-anchor="start" x="1228" y="-135.8" font-family="Arial" font-size="34.00" fill="#ffffff">Ledger 0</text>
<text text-anchor="start" x="1218" y="-113.8" font-family="Arial" font-size="19.00" fill="#ffffff">[Software System]</text>
</g>
<!-- 6&#45;&gt;5 -->
<g id="15" class="edge">
<title>6&#45;&gt;5</title>
<path fill="none" stroke="#707070" d="M931.02,-135.5C1012.37,-135.5 1106.5,-135.5 1178.58,-135.5"/>
<polygon fill="#707070" stroke="#707070" points="1178.61,-139 1188.61,-135.5 1178.61,-132 1178.61,-139"/>
<text text-anchor="start" x="967" y="-168.3" font-family="Arial" font-size="24.00" fill="#707070">2. Notarize with a</text>
<text text-anchor="start" x="1001" y="-142.3" font-family="Arial" font-size="24.00" fill="#707070">transaction</text>
</g>
</g>
</svg>
