<?xml version="1.0" encoding="UTF-8" standalone="no"?>
<!DOCTYPE svg PUBLIC "-//W3C//DTD SVG 1.1//EN"
 "http://www.w3.org/Graphics/SVG/1.1/DTD/svg11.dtd">
<!-- Generated by graphviz version 2.49.1 (20210923.0004)
 -->
<!-- Pages: 1 -->
<svg width="1582pt" height="223pt"
 viewBox="0.00 0.00 1582.00 223.00" xmlns="http://www.w3.org/2000/svg" xmlns:xlink="http://www.w3.org/1999/xlink">
<g id="graph0" class="graph" transform="scale(1 1) rotate(0) translate(4 219)">
<polygon fill="white" stroke="transparent" points="-4,4 -4,-219 1578,-219 1578,4 -4,4"/>
<text text-anchor="start" x="485.5" y="-11.8" font-family="Arial" font-size="34.00">Use case Steel Material Passport: Store</text>
<!-- 11 -->
<g id="11" class="node">
<title>11</title>
<polygon fill="#1168bd" stroke="#0b4884" points="1574,-215 1189,-215 1189,-56 1574,-56 1574,-215"/>
<text text-anchor="start" x="1314" y="-166.8" font-family="Arial" font-size="34.00" fill="#ffffff">Ledger 0</text>
<text text-anchor="start" x="1304" y="-144.8" font-family="Arial" font-size="19.00" fill="#ffffff">[Software System]</text>
<text text-anchor="start" x="1238" y="-107.8" font-family="Arial" font-size="24.00" fill="#ffffff">Stores only the latest block</text>
<text text-anchor="start" x="1218" y="-83.8" font-family="Arial" font-size="24.00" fill="#ffffff">hash (head) of the blockchains</text>
</g>
<!-- 12 -->
<g id="12" class="node">
<title>12</title>
<polygon fill="#1168bd" stroke="#0b4884" points="931,-215 574,-215 574,-56 931,-56 931,-215"/>
<text text-anchor="start" x="689" y="-166.8" font-family="Arial" font-size="34.00" fill="#ffffff">VM&#45;Lets</text>
<text text-anchor="start" x="675" y="-144.8" font-family="Arial" font-size="19.00" fill="#ffffff">[Software System]</text>
<text text-anchor="start" x="603" y="-107.8" font-family="Arial" font-size="24.00" fill="#ffffff">Programmable and scalable</text>
<text text-anchor="start" x="678" y="-83.8" font-family="Arial" font-size="24.00" fill="#ffffff">execution unit</text>
</g>
<!-- 12&#45;&gt;11 -->
<g id="21" class="edge">
<title>12&#45;&gt;11</title>
<path fill="none" stroke="#707070" d="M931.08,-135.5C1008.25,-135.5 1099.05,-135.5 1178.76,-135.5"/>
<polygon fill="#707070" stroke="#707070" points="1178.93,-139 1188.93,-135.5 1178.93,-132 1178.93,-139"/>
<text text-anchor="start" x="967" y="-168.3" font-family="Arial" font-size="24.00" fill="#707070">2. Notarize with a</text>
<text text-anchor="start" x="1001" y="-142.3" font-family="Arial" font-size="24.00" fill="#707070">transaction</text>
</g>
<!-- 10 -->
<g id="10" class="node">
<title>10</title>
<polygon fill="#08427b" stroke="#052e56" points="247,-184 0,-184 0,-87 247,-87 247,-184"/>
<text text-anchor="start" x="29" y="-135.8" font-family="Arial" font-size="34.00" fill="#ffffff">Manifacturer</text>
<text text-anchor="start" x="88" y="-113.8" font-family="Arial" font-size="19.00" fill="#ffffff">[Person]</text>
</g>
<!-- 10&#45;&gt;12 -->
<g id="49" class="edge">
<title>10&#45;&gt;12</title>
<path fill="none" stroke="#707070" d="M247.25,-135.5C337.3,-135.5 461.23,-135.5 563.69,-135.5"/>
<polygon fill="#707070" stroke="#707070" points="563.85,-139 573.85,-135.5 563.85,-132 563.85,-139"/>
<text text-anchor="start" x="283" y="-194.3" font-family="Arial" font-size="24.00" fill="#707070">1. Requests to store the</text>
<text text-anchor="start" x="307.5" y="-168.3" font-family="Arial" font-size="24.00" fill="#707070">information about a</text>
<text text-anchor="start" x="294" y="-142.3" font-family="Arial" font-size="24.00" fill="#707070">material on the ledger</text>
</g>
</g>
</svg>
