<?xml version="1.0" encoding="UTF-8" standalone="no"?>
<!DOCTYPE svg PUBLIC "-//W3C//DTD SVG 1.1//EN"
 "http://www.w3.org/Graphics/SVG/1.1/DTD/svg11.dtd">
<!-- Generated by graphviz version 2.49.1 (20210923.0004)
 -->
<!-- Pages: 1 -->
<svg width="948pt" height="954pt"
 viewBox="0.00 0.00 948.00 954.00" xmlns="http://www.w3.org/2000/svg" xmlns:xlink="http://www.w3.org/1999/xlink">
<g id="graph0" class="graph" transform="scale(1 1) rotate(0) translate(4 950)">
<polygon fill="white" stroke="transparent" points="-4,4 -4,-950 944,-950 944,4 -4,4"/>
<text text-anchor="start" x="323.5" y="-11.8" font-family="Arial" font-size="34.00">Phase 2B Topology</text>
<g id="clust1" class="cluster">
<title>cluster_36</title>
<polygon fill="none" stroke="#888888" points="8,-64 8,-938 932,-938 932,-64 8,-64"/>
<text text-anchor="start" x="441.5" y="-92.8" font-family="Arial" font-size="24.00" fill="#000000">EPIC</text>
<text text-anchor="start" x="388.5" y="-72.8" font-family="Arial" font-size="19.00" fill="#000000">[Deployment Node]</text>
</g>
<g id="clust2" class="cluster">
<title>cluster_37</title>
<polygon fill="none" stroke="#888888" points="318,-140 318,-338 582,-338 582,-140 318,-140"/>
<text text-anchor="start" x="436.5" y="-168.8" font-family="Arial" font-size="24.00" fill="#000000">L1</text>
<text text-anchor="start" x="368.5" y="-148.8" font-family="Arial" font-size="19.00" fill="#000000">[Deployment Node]</text>
</g>
<g id="clust3" class="cluster">
<title>cluster_39</title>
<polygon fill="none" stroke="#888888" points="33,-346 33,-913 907,-913 907,-346 33,-346"/>
<text text-anchor="start" x="335.5" y="-374.8" font-family="Arial" font-size="24.00" fill="#000000">Service Delivery Network</text>
<text text-anchor="start" x="388.5" y="-354.8" font-family="Arial" font-size="19.00" fill="#000000">[Deployment Node]</text>
</g>
<g id="clust4" class="cluster">
<title>cluster_44</title>
<polygon fill="none" stroke="#888888" points="232,-422 232,-682 668,-682 668,-422 232,-422"/>
<text text-anchor="start" x="436.5" y="-450.8" font-family="Arial" font-size="24.00" fill="#000000">L0</text>
<text text-anchor="start" x="368.5" y="-430.8" font-family="Arial" font-size="19.00" fill="#000000">[Deployment Node]</text>
</g>
<g id="clust5" class="cluster">
<title>cluster_40</title>
<polygon fill="none" stroke="#888888" points="58,-690 58,-888 882,-888 882,-690 58,-690"/>
<text text-anchor="start" x="425" y="-718.8" font-family="Arial" font-size="24.00" fill="#000000">VM&#45;Lets</text>
<text text-anchor="start" x="271.5" y="-698.8" font-family="Arial" font-size="19.00" fill="#000000">[Deployment Node: Two nodes per EU country]</text>
</g>
<!-- 38 -->
<g id="38" class="node">
<title>38</title>
<polygon fill="#1168bd" stroke="#0b4884" points="556.5,-313 343.5,-313 343.5,-216 556.5,-216 556.5,-313"/>
<text text-anchor="start" x="382.5" y="-264.8" font-family="Arial" font-size="34.00" fill="#ffffff">Ledger 1</text>
<text text-anchor="start" x="372.5" y="-242.8" font-family="Arial" font-size="19.00" fill="#ffffff">[Software System]</text>
</g>
<!-- 45 -->
<g id="45" class="node">
<title>45</title>
<polygon fill="#1168bd" stroke="#0b4884" points="642.5,-657 257.5,-657 257.5,-498 642.5,-498 642.5,-657"/>
<text text-anchor="start" x="382.5" y="-608.8" font-family="Arial" font-size="34.00" fill="#ffffff">Ledger 0</text>
<text text-anchor="start" x="372.5" y="-586.8" font-family="Arial" font-size="19.00" fill="#ffffff">[Software System]</text>
<text text-anchor="start" x="306.5" y="-549.8" font-family="Arial" font-size="24.00" fill="#ffffff">Stores only the latest block</text>
<text text-anchor="start" x="286.5" y="-525.8" font-family="Arial" font-size="24.00" fill="#ffffff">hash (head) of the blockchains</text>
</g>
<!-- 45&#45;&gt;38 -->
<g id="46" class="edge">
<title>45&#45;&gt;38</title>
<path fill="none" stroke="#707070" d="M450,-346C450,-344 450,-342 450,-340"/>
<polygon fill="#707070" stroke="#707070" points="453.5,-348 450,-338 446.5,-348 453.5,-348"/>
</g>
<!-- 43 -->
<g id="43" class="node">
<title>43</title>
<polygon fill="#438dd5" stroke="#2e6295" points="857,-863 621,-863 621,-766 857,-766 857,-863"/>
<text text-anchor="start" x="650" y="-814.8" font-family="Arial" font-size="34.00" fill="#ffffff">BigchainDB</text>
<text text-anchor="start" x="692.5" y="-792.8" font-family="Arial" font-size="19.00" fill="#ffffff">[Container]</text>
</g>
<!-- 42 -->
<g id="42" class="node">
<title>42</title>
<polygon fill="#438dd5" stroke="#2e6295" points="549,-863 351,-863 351,-766 549,-766 549,-863"/>
<text text-anchor="start" x="380" y="-814.8" font-family="Arial" font-size="34.00" fill="#ffffff">Tarantool</text>
<text text-anchor="start" x="403.5" y="-792.8" font-family="Arial" font-size="19.00" fill="#ffffff">[Container]</text>
</g>
<!-- 42&#45;&gt;45 -->
<g id="47" class="edge">
<title>42&#45;&gt;45</title>
<path fill="none" stroke="#707070" d="M450,-690C450,-688 450,-686 450,-684"/>
<polygon fill="#707070" stroke="#707070" points="453.5,-692 450,-682 446.5,-692 453.5,-692"/>
</g>
<!-- 41 -->
<g id="41" class="node">
<title>41</title>
<polygon fill="#438dd5" stroke="#2e6295" points="278.5,-863 83.5,-863 83.5,-766 278.5,-766 278.5,-863"/>
<text text-anchor="start" x="112.5" y="-814.8" font-family="Arial" font-size="34.00" fill="#ffffff">Zenroom</text>
<text text-anchor="start" x="134.5" y="-792.8" font-family="Arial" font-size="19.00" fill="#ffffff">[Container]</text>
</g>
</g>
</svg>
