<?xml version="1.0" encoding="UTF-8" standalone="no"?>
<!DOCTYPE svg PUBLIC "-//W3C//DTD SVG 1.1//EN"
 "http://www.w3.org/Graphics/SVG/1.1/DTD/svg11.dtd">
<!-- Generated by graphviz version 2.49.1 (20210923.0004)
 -->
<!-- Pages: 1 -->
<svg width="848pt" height="302pt"
 viewBox="0.00 0.00 848.00 302.00" xmlns="http://www.w3.org/2000/svg" xmlns:xlink="http://www.w3.org/1999/xlink">
<g id="graph0" class="graph" transform="scale(1 1) rotate(0) translate(4 298)">
<polygon fill="white" stroke="transparent" points="-4,4 -4,-298 844,-298 844,4 -4,4"/>
<text text-anchor="start" x="259" y="-11.8" font-family="Arial" font-size="34.00">VM&#45;Lets &#45; Containers</text>
<g id="clust1" class="cluster">
<title>cluster_12</title>
<polygon fill="none" stroke="#444444" points="8,-64 8,-286 832,-286 832,-64 8,-64"/>
<text text-anchor="start" x="375" y="-92.8" font-family="Arial" font-size="24.00" fill="#444444">VM&#45;Lets</text>
<text text-anchor="start" x="342.5" y="-72.8" font-family="Arial" font-size="19.00" fill="#444444">[Software System]</text>
</g>
<!-- 13 -->
<g id="13" class="node">
<title>13</title>
<polygon fill="#438dd5" stroke="#2e6295" points="806.5,-261 611.5,-261 611.5,-164 806.5,-164 806.5,-261"/>
<text text-anchor="start" x="640.5" y="-212.8" font-family="Arial" font-size="34.00" fill="#ffffff">Zenroom</text>
<text text-anchor="start" x="662.5" y="-190.8" font-family="Arial" font-size="19.00" fill="#ffffff">[Container]</text>
</g>
<!-- 14 -->
<g id="14" class="node">
<title>14</title>
<polygon fill="#438dd5" stroke="#2e6295" points="539,-261 341,-261 341,-164 539,-164 539,-261"/>
<text text-anchor="start" x="370" y="-212.8" font-family="Arial" font-size="34.00" fill="#ffffff">Tarantool</text>
<text text-anchor="start" x="393.5" y="-190.8" font-family="Arial" font-size="19.00" fill="#ffffff">[Container]</text>
</g>
<!-- 15 -->
<g id="15" class="node">
<title>15</title>
<polygon fill="#438dd5" stroke="#2e6295" points="269,-261 33,-261 33,-164 269,-164 269,-261"/>
<text text-anchor="start" x="62" y="-212.8" font-family="Arial" font-size="34.00" fill="#ffffff">BigchainDB</text>
<text text-anchor="start" x="104.5" y="-190.8" font-family="Arial" font-size="19.00" fill="#ffffff">[Container]</text>
</g>
</g>
</svg>
