<?xml version="1.0" encoding="UTF-8" standalone="no"?>
<!DOCTYPE svg PUBLIC "-//W3C//DTD SVG 1.1//EN"
 "http://www.w3.org/Graphics/SVG/1.1/DTD/svg11.dtd">
<!-- Generated by graphviz version 2.49.1 (20210923.0004)
 -->
<!-- Pages: 1 -->
<svg width="1698pt" height="1350pt"
 viewBox="0.00 0.00 1698.00 1350.00" xmlns="http://www.w3.org/2000/svg" xmlns:xlink="http://www.w3.org/1999/xlink">
<g id="graph0" class="graph" transform="scale(1 1) rotate(0) translate(4 1346)">
<polygon fill="white" stroke="transparent" points="-4,4 -4,-1346 1694,-1346 1694,4 -4,4"/>
<text text-anchor="start" x="594.5" y="-11.8" font-family="Arial" font-size="34.00">System Landscape for Zenbridge</text>
<g id="clust1" class="cluster">
<title>cluster_enterprise</title>
<polygon fill="none" stroke="#444444" points="8,-64 8,-1334 1682,-1334 1682,-64 8,-64"/>
<text text-anchor="start" x="790.5" y="-92.8" font-family="Arial" font-size="24.00" fill="#444444">Zenbridge</text>
<text text-anchor="start" x="796" y="-72.8" font-family="Arial" font-size="19.00" fill="#444444">[Enterprise]</text>
</g>
<g id="clust2" class="cluster">
<title>cluster_group_EBSI</title>
<polygon fill="none" stroke="#cccccc" points="62,-456 62,-1186 1657,-1186 1657,-456 62,-456"/>
<text text-anchor="start" x="832" y="-484.8" font-family="Arial" font-size="24.00" fill="#cccccc">EBSI</text>
<text text-anchor="start" x="827.5" y="-464.8" font-family="Arial" font-size="19.00" fill="#cccccc">[Group]</text>
</g>
<!-- 10 -->
<g id="10" class="node">
<title>10</title>
<polygon fill="#08427b" stroke="#052e56" points="334,-1160.5 87,-1160.5 87,-1063.5 334,-1063.5 334,-1160.5"/>
<text text-anchor="start" x="116" y="-1112.3" font-family="Arial" font-size="34.00" fill="#ffffff">Manifacturer</text>
<text text-anchor="start" x="175" y="-1090.3" font-family="Arial" font-size="19.00" fill="#ffffff">[Person]</text>
</g>
<!-- 11 -->
<g id="11" class="node">
<title>11</title>
<polygon fill="#1168bd" stroke="#0b4884" points="1632,-1134.5 1247,-1134.5 1247,-975.5 1632,-975.5 1632,-1134.5"/>
<text text-anchor="start" x="1372" y="-1086.3" font-family="Arial" font-size="34.00" fill="#ffffff">Ledger 0</text>
<text text-anchor="start" x="1362" y="-1064.3" font-family="Arial" font-size="19.00" fill="#ffffff">[Software System]</text>
<text text-anchor="start" x="1296" y="-1027.3" font-family="Arial" font-size="24.00" fill="#ffffff">Stores only the latest block</text>
<text text-anchor="start" x="1276" y="-1003.3" font-family="Arial" font-size="24.00" fill="#ffffff">hash (head) of the blockchains</text>
</g>
<!-- 12 -->
<g id="12" class="node">
<title>12</title>
<polygon fill="#1168bd" stroke="#0b4884" points="918,-1134.5 561,-1134.5 561,-975.5 918,-975.5 918,-1134.5"/>
<text text-anchor="start" x="676" y="-1086.3" font-family="Arial" font-size="34.00" fill="#ffffff">VM&#45;Lets</text>
<text text-anchor="start" x="662" y="-1064.3" font-family="Arial" font-size="19.00" fill="#ffffff">[Software System]</text>
<text text-anchor="start" x="590" y="-1027.3" font-family="Arial" font-size="24.00" fill="#ffffff">Programmable and scalable</text>
<text text-anchor="start" x="665" y="-1003.3" font-family="Arial" font-size="24.00" fill="#ffffff">execution unit</text>
</g>
<!-- 12&#45;&gt;11 -->
<g id="21" class="edge">
<title>12&#45;&gt;11</title>
<path fill="none" stroke="#707070" d="M902.86,-975.41C919.82,-969.56 937.06,-964.56 954,-961 1065.78,-937.48 1098.96,-938.77 1211,-961 1225.79,-963.93 1240.82,-967.84 1255.74,-972.41"/>
<polygon fill="#707070" stroke="#707070" points="1254.94,-975.82 1265.53,-975.49 1257.05,-969.15 1254.94,-975.82"/>
<text text-anchor="start" x="954" y="-1045.8" font-family="Arial" font-size="24.00" fill="#707070">Stores/Retrieve only the</text>
<text text-anchor="start" x="955" y="-1019.8" font-family="Arial" font-size="24.00" fill="#707070">latest block hash (head)</text>
<text text-anchor="start" x="963" y="-993.8" font-family="Arial" font-size="24.00" fill="#707070">of the blockchains at a</text>
<text text-anchor="start" x="995" y="-967.8" font-family="Arial" font-size="24.00" fill="#707070">given timestamp</text>
</g>
<!-- 1 -->
<g id="1" class="node">
<title>1</title>
<polygon fill="#1168bd" stroke="#0b4884" points="1546,-1308.5 1333,-1308.5 1333,-1211.5 1546,-1211.5 1546,-1308.5"/>
<text text-anchor="start" x="1372" y="-1260.3" font-family="Arial" font-size="34.00" fill="#ffffff">Ledger 1</text>
<text text-anchor="start" x="1362" y="-1238.3" font-family="Arial" font-size="19.00" fill="#ffffff">[Software System]</text>
</g>
<!-- 12&#45;&gt;1 -->
<g id="20" class="edge">
<title>12&#45;&gt;1</title>
<path fill="none" stroke="#707070" d="M918.04,-1107.3C1015.2,-1135.91 1137.72,-1171.95 1247,-1204 1271.58,-1211.21 1297.93,-1218.92 1322.98,-1226.25"/>
<polygon fill="#707070" stroke="#707070" points="1322.3,-1229.7 1332.88,-1229.15 1324.27,-1222.98 1322.3,-1229.7"/>
</g>
<!-- 17 -->
<g id="17" class="node">
<title>17</title>
<polygon fill="#1168bd" stroke="#0b4884" points="323,-991.5 98,-991.5 98,-894.5 323,-894.5 323,-991.5"/>
<text text-anchor="start" x="127" y="-943.3" font-family="Arial" font-size="34.00" fill="#ffffff">Dashboard</text>
<text text-anchor="start" x="133" y="-921.3" font-family="Arial" font-size="19.00" fill="#ffffff">[Software System]</text>
</g>
<!-- 17&#45;&gt;12 -->
<g id="23" class="edge">
<title>17&#45;&gt;12</title>
<path fill="none" stroke="#707070" d="M323.12,-925.83C383.76,-920.14 459.53,-918.99 525,-936 554.46,-943.66 584.18,-956.37 611.69,-970.7"/>
<polygon fill="#707070" stroke="#707070" points="610.07,-973.8 620.54,-975.4 613.36,-967.62 610.07,-973.8"/>
<text text-anchor="start" x="424" y="-942.8" font-family="Arial" font-size="24.00" fill="#707070">Schedule</text>
</g>
<!-- 17&#45;&gt;12 -->
<g id="24" class="edge">
<title>17&#45;&gt;12</title>
<path fill="none" stroke="#707070" d="M323.26,-966.75C389.26,-980.78 474.53,-998.9 550.61,-1015.07"/>
<polygon fill="#707070" stroke="#707070" points="550.29,-1018.58 560.8,-1017.23 551.75,-1011.73 550.29,-1018.58"/>
<text text-anchor="start" x="431" y="-1015.8" font-family="Arial" font-size="24.00" fill="#707070">Execute</text>
</g>
<!-- 8 -->
<g id="8" class="node">
<title>8</title>
<polygon fill="#08427b" stroke="#052e56" points="307,-822.5 114,-822.5 114,-725.5 307,-725.5 307,-822.5"/>
<text text-anchor="start" x="143" y="-774.3" font-family="Arial" font-size="34.00" fill="#ffffff">Operator</text>
<text text-anchor="start" x="175" y="-752.3" font-family="Arial" font-size="19.00" fill="#ffffff">[Person]</text>
</g>
<!-- 9 -->
<g id="9" class="node">
<title>9</title>
<polygon fill="#08427b" stroke="#052e56" points="313.5,-653.5 107.5,-653.5 107.5,-556.5 313.5,-556.5 313.5,-653.5"/>
<text text-anchor="start" x="136.5" y="-605.3" font-family="Arial" font-size="34.00" fill="#ffffff">Customer</text>
<text text-anchor="start" x="175" y="-583.3" font-family="Arial" font-size="19.00" fill="#ffffff">[Person]</text>
</g>
<!-- 1&#45;&gt;12 -->
<g id="22" class="edge">
<title>1&#45;&gt;12</title>
<path fill="none" stroke="#707070" d="M1332.9,-1251.45C1232.98,-1241 1079.95,-1218.85 954,-1174 927.9,-1164.7 901.22,-1152.41 875.96,-1139.25"/>
<polygon fill="#707070" stroke="#707070" points="877.56,-1136.14 867.08,-1134.56 874.29,-1142.33 877.56,-1136.14"/>
</g>
<!-- 2 -->
<g id="2" class="node">
<title>2</title>
<polygon fill="#1168bd" stroke="#0b4884" points="388,-430.5 33,-430.5 33,-333.5 388,-333.5 388,-430.5"/>
<text text-anchor="start" x="62" y="-382.3" font-family="Arial" font-size="34.00" fill="#ffffff">Consensu Operator</text>
<text text-anchor="start" x="133" y="-360.3" font-family="Arial" font-size="19.00" fill="#ffffff">[Software System]</text>
</g>
<!-- 6 -->
<g id="6" class="node">
<title>6</title>
<polygon fill="#1168bd" stroke="#0b4884" points="357,-261.5 64,-261.5 64,-164.5 357,-164.5 357,-261.5"/>
<text text-anchor="start" x="93" y="-213.3" font-family="Arial" font-size="34.00" fill="#ffffff">Cache operator</text>
<text text-anchor="start" x="133" y="-191.3" font-family="Arial" font-size="19.00" fill="#ffffff">[Software System]</text>
</g>
</g>
</svg>
