<?xml version="1.0" encoding="UTF-8" standalone="no"?>
<!DOCTYPE svg PUBLIC "-//W3C//DTD SVG 1.1//EN"
 "http://www.w3.org/Graphics/SVG/1.1/DTD/svg11.dtd">
<!-- Generated by graphviz version 2.49.1 (20210923.0004)
 -->
<!-- Pages: 1 -->
<svg width="721pt" height="931pt"
 viewBox="0.00 0.00 721.00 931.00" xmlns="http://www.w3.org/2000/svg" xmlns:xlink="http://www.w3.org/1999/xlink">
<g id="graph0" class="graph" transform="scale(1 1) rotate(0) translate(4 927)">
<polygon fill="white" stroke="transparent" points="-4,4 -4,-927 717,-927 717,4 -4,4"/>
<text text-anchor="start" x="158" y="-11.8" font-family="Arial" font-size="34.00">VM&#45;Lets &#45; System Context</text>
<g id="clust1" class="cluster">
<title>cluster_enterprise</title>
<polygon fill="none" stroke="#444444" points="8,-64 8,-915 705,-915 705,-64 8,-64"/>
<text text-anchor="start" x="302" y="-92.8" font-family="Arial" font-size="24.00" fill="#444444">Zenbridge</text>
<text text-anchor="start" x="307.5" y="-72.8" font-family="Arial" font-size="19.00" fill="#444444">[Enterprise]</text>
</g>
<g id="clust2" class="cluster">
<title>cluster_group_EBSI</title>
<polygon fill="none" stroke="#cccccc" points="33,-164 33,-890 441,-890 441,-164 33,-164"/>
<text text-anchor="start" x="209.5" y="-192.8" font-family="Arial" font-size="24.00" fill="#cccccc">EBSI</text>
<text text-anchor="start" x="205" y="-172.8" font-family="Arial" font-size="19.00" fill="#cccccc">[Group]</text>
</g>
<!-- 11 -->
<g id="11" class="node">
<title>11</title>
<polygon fill="#1168bd" stroke="#0b4884" points="349.5,-865 124.5,-865 124.5,-768 349.5,-768 349.5,-865"/>
<text text-anchor="start" x="153.5" y="-816.8" font-family="Arial" font-size="34.00" fill="#ffffff">Dashboard</text>
<text text-anchor="start" x="159.5" y="-794.8" font-family="Arial" font-size="19.00" fill="#ffffff">[Software System]</text>
</g>
<!-- 6 -->
<g id="6" class="node">
<title>6</title>
<polygon fill="#1168bd" stroke="#0b4884" points="415.5,-670 58.5,-670 58.5,-511 415.5,-511 415.5,-670"/>
<text text-anchor="start" x="173.5" y="-621.8" font-family="Arial" font-size="34.00" fill="#ffffff">VM&#45;Lets</text>
<text text-anchor="start" x="159.5" y="-599.8" font-family="Arial" font-size="19.00" fill="#ffffff">[Software System]</text>
<text text-anchor="start" x="87.5" y="-562.8" font-family="Arial" font-size="24.00" fill="#ffffff">Programmable and scalable</text>
<text text-anchor="start" x="162.5" y="-538.8" font-family="Arial" font-size="24.00" fill="#ffffff">execution unit</text>
</g>
<!-- 11&#45;&gt;6 -->
<g id="17" class="edge">
<title>11&#45;&gt;6</title>
<path fill="none" stroke="#707070" d="M149.55,-767.95C129.99,-750.73 117.49,-729.62 127,-706 130.86,-696.41 135.95,-687.17 141.83,-678.38"/>
<polygon fill="#707070" stroke="#707070" points="144.77,-680.29 147.69,-670.1 139.06,-676.24 144.77,-680.29"/>
<text text-anchor="start" x="127" y="-712.8" font-family="Arial" font-size="24.00" fill="#707070">Schedule</text>
</g>
<!-- 11&#45;&gt;6 -->
<g id="18" class="edge">
<title>11&#45;&gt;6</title>
<path fill="none" stroke="#707070" d="M240.35,-767.83C241.03,-756.12 241.65,-743.61 242,-732 242.5,-715.28 242.37,-697.44 241.92,-680.27"/>
<polygon fill="#707070" stroke="#707070" points="245.42,-680.15 241.62,-670.26 238.42,-680.36 245.42,-680.15"/>
<text text-anchor="start" x="243" y="-712.8" font-family="Arial" font-size="24.00" fill="#707070">Execute</text>
</g>
<!-- 5 -->
<g id="5" class="node">
<title>5</title>
<polygon fill="#1168bd" stroke="#0b4884" points="293.5,-361 80.5,-361 80.5,-264 293.5,-264 293.5,-361"/>
<text text-anchor="start" x="119.5" y="-312.8" font-family="Arial" font-size="34.00" fill="#ffffff">Ledger 0</text>
<text text-anchor="start" x="109.5" y="-290.8" font-family="Arial" font-size="19.00" fill="#ffffff">[Software System]</text>
</g>
<!-- 6&#45;&gt;5 -->
<g id="15" class="edge">
<title>6&#45;&gt;5</title>
<path fill="none" stroke="#707070" d="M197.68,-510.81C193.27,-499.06 189.48,-486.89 187,-475 179.92,-441.09 179.67,-402.3 181.31,-371.24"/>
<polygon fill="#707070" stroke="#707070" points="184.82,-371.21 181.93,-361.02 177.83,-370.79 184.82,-371.21"/>
<text text-anchor="start" x="215" y="-455.8" font-family="Arial" font-size="24.00" fill="#707070">Retrives the last</text>
<text text-anchor="start" x="187" y="-429.8" font-family="Arial" font-size="24.00" fill="#707070">transaction at a given</text>
<text text-anchor="start" x="246" y="-403.8" font-family="Arial" font-size="24.00" fill="#707070">timestamp</text>
</g>
<!-- 1 -->
<g id="1" class="node">
<title>1</title>
<polygon fill="#1168bd" stroke="#0b4884" points="679.5,-361 466.5,-361 466.5,-264 679.5,-264 679.5,-361"/>
<text text-anchor="start" x="505.5" y="-312.8" font-family="Arial" font-size="34.00" fill="#ffffff">Ledger 1</text>
<text text-anchor="start" x="495.5" y="-290.8" font-family="Arial" font-size="19.00" fill="#ffffff">[Software System]</text>
</g>
<!-- 6&#45;&gt;1 -->
<g id="14" class="edge">
<title>6&#45;&gt;1</title>
<path fill="none" stroke="#707070" d="M384.84,-510.95C402,-499.71 418.79,-487.64 434,-475 471.25,-444.05 506.75,-402.52 532.55,-369.33"/>
<polygon fill="#707070" stroke="#707070" points="535.57,-371.14 538.89,-361.08 530.02,-366.87 535.57,-371.14"/>
</g>
<!-- 1&#45;&gt;6 -->
<g id="16" class="edge">
<title>1&#45;&gt;6</title>
<path fill="none" stroke="#707070" d="M557.8,-361.21C544.47,-396.5 522.02,-443.69 489,-475 470.06,-492.96 447.82,-508.45 424.52,-521.71"/>
<polygon fill="#707070" stroke="#707070" points="422.59,-518.78 415.54,-526.69 425.99,-524.9 422.59,-518.78"/>
</g>
</g>
</svg>
