<?xml version="1.0" encoding="UTF-8" standalone="no"?>
<!DOCTYPE svg PUBLIC "-//W3C//DTD SVG 1.1//EN"
 "http://www.w3.org/Graphics/SVG/1.1/DTD/svg11.dtd">
<!-- Generated by graphviz version 2.49.1 (20210923.0004)
 -->
<!-- Pages: 1 -->
<svg width="1237pt" height="654pt"
 viewBox="0.00 0.00 1237.00 654.00" xmlns="http://www.w3.org/2000/svg" xmlns:xlink="http://www.w3.org/1999/xlink">
<g id="graph0" class="graph" transform="scale(1 1) rotate(0) translate(4 650)">
<polygon fill="white" stroke="transparent" points="-4,4 -4,-650 1233,-650 1233,4 -4,4"/>
<text text-anchor="start" x="416" y="-11.8" font-family="Arial" font-size="34.00">VM&#45;Lets &#45; System Context</text>
<g id="clust1" class="cluster">
<title>cluster_enterprise</title>
<polygon fill="none" stroke="#444444" points="8,-64 8,-638 1221,-638 1221,-64 8,-64"/>
<text text-anchor="start" x="560" y="-92.8" font-family="Arial" font-size="24.00" fill="#444444">Zenbridge</text>
<text text-anchor="start" x="565.5" y="-72.8" font-family="Arial" font-size="19.00" fill="#444444">[Enterprise]</text>
</g>
<g id="clust2" class="cluster">
<title>cluster_group_EBSI</title>
<polygon fill="none" stroke="#cccccc" points="33,-164 33,-490 1196,-490 1196,-164 33,-164"/>
<text text-anchor="start" x="587" y="-192.8" font-family="Arial" font-size="24.00" fill="#cccccc">EBSI</text>
<text text-anchor="start" x="582.5" y="-172.8" font-family="Arial" font-size="19.00" fill="#cccccc">[Group]</text>
</g>
<!-- 1 -->
<g id="1" class="node">
<title>1</title>
<polygon fill="#1168bd" stroke="#0b4884" points="1171,-422.5 958,-422.5 958,-325.5 1171,-325.5 1171,-422.5"/>
<text text-anchor="start" x="997" y="-374.3" font-family="Arial" font-size="34.00" fill="#ffffff">Ledger 0</text>
<text text-anchor="start" x="987" y="-352.3" font-family="Arial" font-size="19.00" fill="#ffffff">[Software System]</text>
</g>
<!-- 2 -->
<g id="2" class="node">
<title>2</title>
<polygon fill="#1168bd" stroke="#0b4884" points="657,-464.5 444,-464.5 444,-367.5 657,-367.5 657,-464.5"/>
<text text-anchor="start" x="487" y="-416.3" font-family="Arial" font-size="34.00" fill="#ffffff">VM&#45;Lets</text>
<text text-anchor="start" x="473" y="-394.3" font-family="Arial" font-size="19.00" fill="#ffffff">[Software System]</text>
</g>
<!-- 2&#45;&gt;1 -->
<g id="10" class="edge">
<title>2&#45;&gt;1</title>
<path fill="none" stroke="#707070" stroke-dasharray="5,2" d="M591.2,-367.34C616.94,-339.79 653.06,-307.93 693,-293 788.33,-257.36 823.64,-266.84 922,-293 944.04,-298.86 966.23,-309.06 986.28,-320.28"/>
<polygon fill="#707070" stroke="#707070" points="984.62,-323.36 995.04,-325.32 988.11,-317.3 984.62,-323.36"/>
<text text-anchor="start" x="721" y="-365.8" font-family="Arial" font-size="24.00" fill="#707070">Retrives the last</text>
<text text-anchor="start" x="693" y="-341.8" font-family="Arial" font-size="24.00" fill="#707070">transaction at a given</text>
<text text-anchor="start" x="752" y="-317.8" font-family="Arial" font-size="24.00" fill="#707070">timestamp</text>
<text text-anchor="start" x="766" y="-297.8" font-family="Arial" font-size="19.00" fill="#707070">[json/http]</text>
</g>
<!-- 8 -->
<g id="8" class="node">
<title>8</title>
<polygon fill="#1168bd" stroke="#0b4884" points="1171,-612.5 958,-612.5 958,-515.5 1171,-515.5 1171,-612.5"/>
<text text-anchor="start" x="997" y="-564.3" font-family="Arial" font-size="34.00" fill="#ffffff">Ledger 1</text>
<text text-anchor="start" x="987" y="-542.3" font-family="Arial" font-size="19.00" fill="#ffffff">[Software System]</text>
</g>
<!-- 2&#45;&gt;8 -->
<g id="9" class="edge">
<title>2&#45;&gt;8</title>
<path fill="none" stroke="#707070" stroke-dasharray="5,2" d="M657.2,-444.28C731.48,-464.42 833.06,-492.51 922,-519 930.53,-521.54 939.33,-524.21 948.17,-526.94"/>
<polygon fill="#707070" stroke="#707070" points="947.19,-530.3 957.78,-529.91 949.26,-523.61 947.19,-530.3"/>
</g>
<!-- 7 -->
<g id="7" class="node">
<title>7</title>
<polygon fill="#1168bd" stroke="#0b4884" points="271,-424.5 58,-424.5 58,-327.5 271,-327.5 271,-424.5"/>
<text text-anchor="start" x="137" y="-376.3" font-family="Arial" font-size="34.00" fill="#ffffff">API</text>
<text text-anchor="start" x="87" y="-354.3" font-family="Arial" font-size="19.00" fill="#ffffff">[Software System]</text>
</g>
<!-- 7&#45;&gt;2 -->
<g id="12" class="edge">
<title>7&#45;&gt;2</title>
<path fill="none" stroke="#707070" stroke-dasharray="5,2" d="M271.13,-329.69C313.98,-316.91 363.72,-309.75 408,-323 434.72,-330.99 461.07,-345.84 483.66,-361.36"/>
<polygon fill="#707070" stroke="#707070" points="481.93,-364.42 492.12,-367.32 485.96,-358.7 481.93,-364.42"/>
<text text-anchor="start" x="307" y="-329.8" font-family="Arial" font-size="24.00" fill="#707070">Schedule</text>
</g>
<!-- 7&#45;&gt;2 -->
<g id="13" class="edge">
<title>7&#45;&gt;2</title>
<path fill="none" stroke="#707070" stroke-dasharray="5,2" d="M271.19,-387.01C321.56,-392.26 381.94,-398.55 433.56,-403.92"/>
<polygon fill="#707070" stroke="#707070" points="433.46,-407.43 443.77,-404.99 434.18,-400.47 433.46,-407.43"/>
<text text-anchor="start" x="314" y="-407.8" font-family="Arial" font-size="24.00" fill="#707070">Execute</text>
</g>
<!-- 8&#45;&gt;2 -->
<g id="11" class="edge">
<title>8&#45;&gt;2</title>
<path fill="none" stroke="#707070" stroke-dasharray="5,2" d="M957.8,-571.65C881.48,-573.3 777.42,-567.43 693,-533 659.56,-519.37 628.01,-494.89 603.22,-471.83"/>
<polygon fill="#707070" stroke="#707070" points="605.41,-469.09 595.75,-464.74 600.59,-474.16 605.41,-469.09"/>
</g>
</g>
</svg>
