<?xml version="1.0" encoding="UTF-8" standalone="no"?>
<!DOCTYPE svg PUBLIC "-//W3C//DTD SVG 1.1//EN"
 "http://www.w3.org/Graphics/SVG/1.1/DTD/svg11.dtd">
<!-- Generated by graphviz version 2.49.1 (20210923.0004)
 -->
<!-- Pages: 1 -->
<svg width="898pt" height="647pt"
 viewBox="0.00 0.00 898.00 647.00" xmlns="http://www.w3.org/2000/svg" xmlns:xlink="http://www.w3.org/1999/xlink">
<g id="graph0" class="graph" transform="scale(1 1) rotate(0) translate(4 643)">
<polygon fill="white" stroke="transparent" points="-4,4 -4,-643 894,-643 894,4 -4,4"/>
<text text-anchor="start" x="187" y="-11.8" font-family="Arial" font-size="34.00">VM&#45;Lets &#45; Deployment &#45; Phase 2A</text>
<g id="clust1" class="cluster">
<title>cluster_25</title>
<polygon fill="none" stroke="#888888" points="8,-64 8,-631 882,-631 882,-64 8,-64"/>
<text text-anchor="start" x="416.5" y="-92.8" font-family="Arial" font-size="24.00" fill="#000000">EPIC</text>
<text text-anchor="start" x="363.5" y="-72.8" font-family="Arial" font-size="19.00" fill="#000000">[Deployment Node]</text>
</g>
<g id="clust2" class="cluster">
<title>cluster_32</title>
<polygon fill="none" stroke="#888888" points="33,-140 33,-400 469,-400 469,-140 33,-140"/>
<text text-anchor="start" x="237.5" y="-168.8" font-family="Arial" font-size="24.00" fill="#000000">L0</text>
<text text-anchor="start" x="169.5" y="-148.8" font-family="Arial" font-size="19.00" fill="#000000">[Deployment Node]</text>
</g>
<g id="clust3" class="cluster">
<title>cluster_26</title>
<polygon fill="none" stroke="#888888" points="494,-171 494,-369 758,-369 758,-171 494,-171"/>
<text text-anchor="start" x="612.5" y="-199.8" font-family="Arial" font-size="24.00" fill="#000000">L1</text>
<text text-anchor="start" x="544.5" y="-179.8" font-family="Arial" font-size="19.00" fill="#000000">[Deployment Node]</text>
</g>
<g id="clust4" class="cluster">
<title>cluster_28</title>
<polygon fill="none" stroke="#888888" points="33,-408 33,-606 857,-606 857,-408 33,-408"/>
<text text-anchor="start" x="400" y="-436.8" font-family="Arial" font-size="24.00" fill="#000000">VM&#45;Lets</text>
<text text-anchor="start" x="363.5" y="-416.8" font-family="Arial" font-size="19.00" fill="#000000">[Deployment Node]</text>
</g>
<!-- 33 -->
<g id="33" class="node">
<title>33</title>
<polygon fill="#1168bd" stroke="#0b4884" points="443.5,-375 58.5,-375 58.5,-216 443.5,-216 443.5,-375"/>
<text text-anchor="start" x="183.5" y="-326.8" font-family="Arial" font-size="34.00" fill="#ffffff">Ledger 0</text>
<text text-anchor="start" x="173.5" y="-304.8" font-family="Arial" font-size="19.00" fill="#ffffff">[Software System]</text>
<text text-anchor="start" x="107.5" y="-267.8" font-family="Arial" font-size="24.00" fill="#ffffff">Stores only the latest block</text>
<text text-anchor="start" x="87.5" y="-243.8" font-family="Arial" font-size="24.00" fill="#ffffff">hash (head) of the blockchains</text>
</g>
<!-- 27 -->
<g id="27" class="node">
<title>27</title>
<polygon fill="#1168bd" stroke="#0b4884" points="732.5,-344 519.5,-344 519.5,-247 732.5,-247 732.5,-344"/>
<text text-anchor="start" x="558.5" y="-295.8" font-family="Arial" font-size="34.00" fill="#ffffff">Ledger 1</text>
<text text-anchor="start" x="548.5" y="-273.8" font-family="Arial" font-size="19.00" fill="#ffffff">[Software System]</text>
</g>
<!-- 31 -->
<g id="31" class="node">
<title>31</title>
<polygon fill="#438dd5" stroke="#2e6295" points="832,-581 596,-581 596,-484 832,-484 832,-581"/>
<text text-anchor="start" x="625" y="-532.8" font-family="Arial" font-size="34.00" fill="#ffffff">BigchainDB</text>
<text text-anchor="start" x="667.5" y="-510.8" font-family="Arial" font-size="19.00" fill="#ffffff">[Container]</text>
</g>
<!-- 30 -->
<g id="30" class="node">
<title>30</title>
<polygon fill="#438dd5" stroke="#2e6295" points="524,-581 326,-581 326,-484 524,-484 524,-581"/>
<text text-anchor="start" x="355" y="-532.8" font-family="Arial" font-size="34.00" fill="#ffffff">Tarantool</text>
<text text-anchor="start" x="378.5" y="-510.8" font-family="Arial" font-size="19.00" fill="#ffffff">[Container]</text>
</g>
<!-- 29 -->
<g id="29" class="node">
<title>29</title>
<polygon fill="#438dd5" stroke="#2e6295" points="253.5,-581 58.5,-581 58.5,-484 253.5,-484 253.5,-581"/>
<text text-anchor="start" x="87.5" y="-532.8" font-family="Arial" font-size="34.00" fill="#ffffff">Zenroom</text>
<text text-anchor="start" x="109.5" y="-510.8" font-family="Arial" font-size="19.00" fill="#ffffff">[Container]</text>
</g>
<!-- 29&#45;&gt;33 -->
<g id="35" class="edge">
<title>29&#45;&gt;33</title>
<path fill="none" stroke="#707070" d="M205.4,-408C206.34,-406 207.28,-404 208.22,-402"/>
<polygon fill="#707070" stroke="#707070" points="208.08,-410.54 209.16,-400 201.74,-407.56 208.08,-410.54"/>
</g>
<!-- 29&#45;&gt;27 -->
<g id="34" class="edge">
<title>29&#45;&gt;27</title>
<path fill="none" stroke="#707070" d="M290,-408C330.48,-391.24 445.7,-414.62 487,-400 504.16,-393.92 520.97,-384.94 536.64,-374.76"/>
<polygon fill="#707070" stroke="#707070" points="538.87,-377.48 545.22,-369 534.97,-371.67 538.87,-377.48"/>
</g>
</g>
</svg>
