<?xml version="1.0" encoding="UTF-8" standalone="no"?>
<!DOCTYPE svg PUBLIC "-//W3C//DTD SVG 1.1//EN"
 "http://www.w3.org/Graphics/SVG/1.1/DTD/svg11.dtd">
<!-- Generated by graphviz version 2.49.1 (20210923.0004)
 -->
<!-- Pages: 1 -->
<svg width="770pt" height="1019pt"
 viewBox="0.00 0.00 770.00 1019.00" xmlns="http://www.w3.org/2000/svg" xmlns:xlink="http://www.w3.org/1999/xlink">
<g id="graph0" class="graph" transform="scale(1 1) rotate(0) translate(4 1015)">
<polygon fill="white" stroke="transparent" points="-4,4 -4,-1015 766,-1015 766,4 -4,4"/>
<text text-anchor="start" x="182.5" y="-11.8" font-family="Arial" font-size="34.00">VM&#45;Lets &#45; System Context</text>
<g id="clust1" class="cluster">
<title>cluster_enterprise</title>
<polygon fill="none" stroke="#444444" points="8,-64 8,-1003 754,-1003 754,-64 8,-64"/>
<text text-anchor="start" x="326.5" y="-92.8" font-family="Arial" font-size="24.00" fill="#444444">Zenbridge</text>
<text text-anchor="start" x="332" y="-72.8" font-family="Arial" font-size="19.00" fill="#444444">[Enterprise]</text>
</g>
<g id="clust2" class="cluster">
<title>cluster_group_EBSI</title>
<polygon fill="none" stroke="#cccccc" points="33,-164 33,-978 469,-978 469,-164 33,-164"/>
<text text-anchor="start" x="223.5" y="-192.8" font-family="Arial" font-size="24.00" fill="#cccccc">EBSI</text>
<text text-anchor="start" x="219" y="-172.8" font-family="Arial" font-size="19.00" fill="#cccccc">[Group]</text>
</g>
<!-- 11 -->
<g id="11" class="node">
<title>11</title>
<polygon fill="#1168bd" stroke="#0b4884" points="443.5,-423 58.5,-423 58.5,-264 443.5,-264 443.5,-423"/>
<text text-anchor="start" x="183.5" y="-374.8" font-family="Arial" font-size="34.00" fill="#ffffff">Ledger 0</text>
<text text-anchor="start" x="173.5" y="-352.8" font-family="Arial" font-size="19.00" fill="#ffffff">[Software System]</text>
<text text-anchor="start" x="107.5" y="-315.8" font-family="Arial" font-size="24.00" fill="#ffffff">Stores only the latest block</text>
<text text-anchor="start" x="87.5" y="-291.8" font-family="Arial" font-size="24.00" fill="#ffffff">hash (head) of the blockchains</text>
</g>
<!-- 12 -->
<g id="12" class="node">
<title>12</title>
<polygon fill="#1168bd" stroke="#0b4884" points="443.5,-758 86.5,-758 86.5,-599 443.5,-599 443.5,-758"/>
<text text-anchor="start" x="201.5" y="-709.8" font-family="Arial" font-size="34.00" fill="#ffffff">VM&#45;Lets</text>
<text text-anchor="start" x="187.5" y="-687.8" font-family="Arial" font-size="19.00" fill="#ffffff">[Software System]</text>
<text text-anchor="start" x="115.5" y="-650.8" font-family="Arial" font-size="24.00" fill="#ffffff">Programmable and scalable</text>
<text text-anchor="start" x="190.5" y="-626.8" font-family="Arial" font-size="24.00" fill="#ffffff">execution unit</text>
</g>
<!-- 12&#45;&gt;11 -->
<g id="21" class="edge">
<title>12&#45;&gt;11</title>
<path fill="none" stroke="#707070" d="M202.91,-599C196.4,-587.46 190.79,-575.3 187,-563 173.38,-518.83 175.35,-503.73 187,-459 189.3,-450.18 192.44,-441.32 196.11,-432.65"/>
<polygon fill="#707070" stroke="#707070" points="199.39,-433.88 200.28,-423.32 193,-431.02 199.39,-433.88"/>
<text text-anchor="start" x="187" y="-543.8" font-family="Arial" font-size="24.00" fill="#707070">Stores/Retrieve only the</text>
<text text-anchor="start" x="188" y="-517.8" font-family="Arial" font-size="24.00" fill="#707070">latest block hash (head)</text>
<text text-anchor="start" x="196" y="-491.8" font-family="Arial" font-size="24.00" fill="#707070">of the blockchains at a</text>
<text text-anchor="start" x="228" y="-465.8" font-family="Arial" font-size="24.00" fill="#707070">given timestamp</text>
</g>
<!-- 1 -->
<g id="1" class="node">
<title>1</title>
<polygon fill="#1168bd" stroke="#0b4884" points="728.5,-392 515.5,-392 515.5,-295 728.5,-295 728.5,-392"/>
<text text-anchor="start" x="554.5" y="-343.8" font-family="Arial" font-size="34.00" fill="#ffffff">Ledger 1</text>
<text text-anchor="start" x="544.5" y="-321.8" font-family="Arial" font-size="19.00" fill="#ffffff">[Software System]</text>
</g>
<!-- 12&#45;&gt;1 -->
<g id="20" class="edge">
<title>12&#45;&gt;1</title>
<path fill="none" stroke="#707070" d="M415.61,-598.89C431.97,-587.79 447.81,-575.77 462,-563 514.65,-515.63 560.73,-448.36 589.75,-401.01"/>
<polygon fill="#707070" stroke="#707070" points="592.77,-402.77 594.97,-392.41 586.79,-399.14 592.77,-402.77"/>
</g>
<!-- 17 -->
<g id="17" class="node">
<title>17</title>
<polygon fill="#1168bd" stroke="#0b4884" points="351.5,-953 126.5,-953 126.5,-856 351.5,-856 351.5,-953"/>
<text text-anchor="start" x="155.5" y="-904.8" font-family="Arial" font-size="34.00" fill="#ffffff">Dashboard</text>
<text text-anchor="start" x="161.5" y="-882.8" font-family="Arial" font-size="19.00" fill="#ffffff">[Software System]</text>
</g>
<!-- 17&#45;&gt;12 -->
<g id="23" class="edge">
<title>17&#45;&gt;12</title>
<path fill="none" stroke="#707070" d="M161.35,-855.76C142.86,-838.1 131.03,-816.79 141,-794 145.23,-784.34 150.72,-775.13 157.04,-766.44"/>
<polygon fill="#707070" stroke="#707070" points="160,-768.32 163.33,-758.26 154.46,-764.05 160,-768.32"/>
<text text-anchor="start" x="141" y="-800.8" font-family="Arial" font-size="24.00" fill="#707070">Schedule</text>
</g>
<!-- 17&#45;&gt;12 -->
<g id="24" class="edge">
<title>17&#45;&gt;12</title>
<path fill="none" stroke="#707070" d="M249.93,-855.56C252.25,-843.97 254.46,-831.58 256,-820 258.23,-803.29 259.91,-785.39 261.17,-768.15"/>
<polygon fill="#707070" stroke="#707070" points="264.67,-768.3 261.87,-758.09 257.69,-767.82 264.67,-768.3"/>
<text text-anchor="start" x="259" y="-800.8" font-family="Arial" font-size="24.00" fill="#707070">Execute</text>
</g>
<!-- 1&#45;&gt;12 -->
<g id="22" class="edge">
<title>1&#45;&gt;12</title>
<path fill="none" stroke="#707070" d="M611.38,-392.03C598.31,-440.62 571.75,-515.5 524,-563 503.41,-583.48 478.53,-600.61 452.44,-614.83"/>
<polygon fill="#707070" stroke="#707070" points="450.74,-611.77 443.55,-619.55 454.02,-617.96 450.74,-611.77"/>
</g>
</g>
</svg>
