<?xml version="1.0" encoding="UTF-8" standalone="no"?>
<!DOCTYPE svg PUBLIC "-//W3C//DTD SVG 1.1//EN"
 "http://www.w3.org/Graphics/SVG/1.1/DTD/svg11.dtd">
<!-- Generated by graphviz version 2.49.1 (20210923.0004)
 -->
<!-- Pages: 1 -->
<svg width="1415pt" height="1058pt"
 viewBox="0.00 0.00 1415.00 1058.00" xmlns="http://www.w3.org/2000/svg" xmlns:xlink="http://www.w3.org/1999/xlink">
<g id="graph0" class="graph" transform="scale(1 1) rotate(0) translate(4 1054)">
<polygon fill="white" stroke="transparent" points="-4,4 -4,-1054 1411,-1054 1411,4 -4,4"/>
<text text-anchor="start" x="453" y="-11.8" font-family="Arial" font-size="34.00">System Landscape for Zenbridge</text>
<g id="clust1" class="cluster">
<title>cluster_enterprise</title>
<polygon fill="none" stroke="#444444" points="8,-64 8,-1042 1399,-1042 1399,-64 8,-64"/>
<text text-anchor="start" x="649" y="-92.8" font-family="Arial" font-size="24.00" fill="#444444">Zenbridge</text>
<text text-anchor="start" x="654.5" y="-72.8" font-family="Arial" font-size="19.00" fill="#444444">[Enterprise]</text>
</g>
<g id="clust2" class="cluster">
<title>cluster_group_EBSI</title>
<polygon fill="none" stroke="#cccccc" points="33,-164 33,-894 1374,-894 1374,-164 33,-164"/>
<text text-anchor="start" x="676" y="-192.8" font-family="Arial" font-size="24.00" fill="#cccccc">EBSI</text>
<text text-anchor="start" x="671.5" y="-172.8" font-family="Arial" font-size="19.00" fill="#cccccc">[Group]</text>
</g>
<!-- 11 -->
<g id="11" class="node">
<title>11</title>
<polygon fill="#1168bd" stroke="#0b4884" points="294,-868.5 69,-868.5 69,-771.5 294,-771.5 294,-868.5"/>
<text text-anchor="start" x="98" y="-820.3" font-family="Arial" font-size="34.00" fill="#ffffff">Dashboard</text>
<text text-anchor="start" x="104" y="-798.3" font-family="Arial" font-size="19.00" fill="#ffffff">[Software System]</text>
</g>
<!-- 6 -->
<g id="6" class="node">
<title>6</title>
<polygon fill="#1168bd" stroke="#0b4884" points="835,-868.5 478,-868.5 478,-709.5 835,-709.5 835,-868.5"/>
<text text-anchor="start" x="593" y="-820.3" font-family="Arial" font-size="34.00" fill="#ffffff">VM&#45;Lets</text>
<text text-anchor="start" x="579" y="-798.3" font-family="Arial" font-size="19.00" fill="#ffffff">[Software System]</text>
<text text-anchor="start" x="507" y="-761.3" font-family="Arial" font-size="24.00" fill="#ffffff">Programmable and scalable</text>
<text text-anchor="start" x="582" y="-737.3" font-family="Arial" font-size="24.00" fill="#ffffff">execution unit</text>
</g>
<!-- 11&#45;&gt;6 -->
<g id="17" class="edge">
<title>11&#45;&gt;6</title>
<path fill="none" stroke="#707070" d="M253.92,-771.37C293.49,-744.65 335.77,-716.58 341,-715 381.65,-702.76 425.75,-704.22 467.71,-712.36"/>
<polygon fill="#707070" stroke="#707070" points="467.26,-715.84 477.76,-714.44 468.68,-708.98 467.26,-715.84"/>
<text text-anchor="start" x="341" y="-721.8" font-family="Arial" font-size="24.00" fill="#707070">Schedule</text>
</g>
<!-- 11&#45;&gt;6 -->
<g id="18" class="edge">
<title>11&#45;&gt;6</title>
<path fill="none" stroke="#707070" d="M294.29,-812.67C346.07,-809.28 409.01,-805.15 467.75,-801.3"/>
<polygon fill="#707070" stroke="#707070" points="468.15,-804.79 477.9,-800.64 467.7,-797.8 468.15,-804.79"/>
<text text-anchor="start" x="348" y="-815.8" font-family="Arial" font-size="24.00" fill="#707070">Execute</text>
</g>
<!-- 2 -->
<g id="2" class="node">
<title>2</title>
<polygon fill="#08427b" stroke="#052e56" points="278,-699.5 85,-699.5 85,-602.5 278,-602.5 278,-699.5"/>
<text text-anchor="start" x="114" y="-651.3" font-family="Arial" font-size="34.00" fill="#ffffff">Operator</text>
<text text-anchor="start" x="146" y="-629.3" font-family="Arial" font-size="19.00" fill="#ffffff">[Person]</text>
</g>
<!-- 3 -->
<g id="3" class="node">
<title>3</title>
<polygon fill="#08427b" stroke="#052e56" points="284.5,-530.5 78.5,-530.5 78.5,-433.5 284.5,-433.5 284.5,-530.5"/>
<text text-anchor="start" x="107.5" y="-482.3" font-family="Arial" font-size="34.00" fill="#ffffff">Customer</text>
<text text-anchor="start" x="146" y="-460.3" font-family="Arial" font-size="19.00" fill="#ffffff">[Person]</text>
</g>
<!-- 4 -->
<g id="4" class="node">
<title>4</title>
<polygon fill="#08427b" stroke="#052e56" points="305,-361.5 58,-361.5 58,-264.5 305,-264.5 305,-361.5"/>
<text text-anchor="start" x="87" y="-313.3" font-family="Arial" font-size="34.00" fill="#ffffff">Manifacturer</text>
<text text-anchor="start" x="146" y="-291.3" font-family="Arial" font-size="19.00" fill="#ffffff">[Person]</text>
</g>
<!-- 5 -->
<g id="5" class="node">
<title>5</title>
<polygon fill="#1168bd" stroke="#0b4884" points="1349,-837.5 1136,-837.5 1136,-740.5 1349,-740.5 1349,-837.5"/>
<text text-anchor="start" x="1175" y="-789.3" font-family="Arial" font-size="34.00" fill="#ffffff">Ledger 0</text>
<text text-anchor="start" x="1165" y="-767.3" font-family="Arial" font-size="19.00" fill="#ffffff">[Software System]</text>
</g>
<!-- 6&#45;&gt;5 -->
<g id="15" class="edge">
<title>6&#45;&gt;5</title>
<path fill="none" stroke="#707070" d="M835.05,-727.97C847.12,-725.21 859.18,-722.84 871,-721 971.57,-705.37 1000.76,-698.39 1100,-721 1115.51,-724.53 1131.31,-729.99 1146.46,-736.32"/>
<polygon fill="#707070" stroke="#707070" points="1145.23,-739.6 1155.79,-740.35 1148.01,-733.17 1145.23,-739.6"/>
<text text-anchor="start" x="899" y="-779.8" font-family="Arial" font-size="24.00" fill="#707070">Retrives the last</text>
<text text-anchor="start" x="871" y="-753.8" font-family="Arial" font-size="24.00" fill="#707070">transaction at a given</text>
<text text-anchor="start" x="930" y="-727.8" font-family="Arial" font-size="24.00" fill="#707070">timestamp</text>
</g>
<!-- 1 -->
<g id="1" class="node">
<title>1</title>
<polygon fill="#1168bd" stroke="#0b4884" points="1349,-1016.5 1136,-1016.5 1136,-919.5 1349,-919.5 1349,-1016.5"/>
<text text-anchor="start" x="1175" y="-968.3" font-family="Arial" font-size="34.00" fill="#ffffff">Ledger 1</text>
<text text-anchor="start" x="1165" y="-946.3" font-family="Arial" font-size="19.00" fill="#ffffff">[Software System]</text>
</g>
<!-- 6&#45;&gt;1 -->
<g id="14" class="edge">
<title>6&#45;&gt;1</title>
<path fill="none" stroke="#707070" d="M835.1,-843.43C929.52,-872.37 1042.89,-907.12 1125.87,-932.56"/>
<polygon fill="#707070" stroke="#707070" points="1125,-935.95 1135.58,-935.54 1127.05,-929.26 1125,-935.95"/>
</g>
<!-- 1&#45;&gt;6 -->
<g id="16" class="edge">
<title>1&#45;&gt;6</title>
<path fill="none" stroke="#707070" d="M1135.74,-960.25C1060.31,-952.42 957.37,-936.98 871,-907 845.25,-898.07 818.96,-886.17 794.03,-873.36"/>
<polygon fill="#707070" stroke="#707070" points="795.39,-870.12 784.9,-868.6 792.15,-876.33 795.39,-870.12"/>
</g>
</g>
</svg>
