<?xml version="1.0" encoding="UTF-8" standalone="no"?>
<!DOCTYPE svg PUBLIC "-//W3C//DTD SVG 1.1//EN"
 "http://www.w3.org/Graphics/SVG/1.1/DTD/svg11.dtd">
<!-- Generated by graphviz version 2.49.1 (20210923.0004)
 -->
<!-- Pages: 1 -->
<svg width="1555pt" height="248pt"
 viewBox="0.00 0.00 1555.00 247.50" xmlns="http://www.w3.org/2000/svg" xmlns:xlink="http://www.w3.org/1999/xlink">
<g id="graph0" class="graph" transform="scale(1 1) rotate(0) translate(4 243.5)">
<polygon fill="white" stroke="transparent" points="-4,4 -4,-243.5 1551,-243.5 1551,4 -4,4"/>
<text text-anchor="start" x="449" y="-11.8" font-family="Arial" font-size="34.00">Use case Steel Material Passport: Retrieve</text>
<!-- 11 -->
<g id="11" class="node">
<title>11</title>
<polygon fill="#1168bd" stroke="#0b4884" points="1547,-215 1162,-215 1162,-56 1547,-56 1547,-215"/>
<text text-anchor="start" x="1287" y="-166.8" font-family="Arial" font-size="34.00" fill="#ffffff">Ledger 0</text>
<text text-anchor="start" x="1277" y="-144.8" font-family="Arial" font-size="19.00" fill="#ffffff">[Software System]</text>
<text text-anchor="start" x="1211" y="-107.8" font-family="Arial" font-size="24.00" fill="#ffffff">Stores only the latest block</text>
<text text-anchor="start" x="1191" y="-83.8" font-family="Arial" font-size="24.00" fill="#ffffff">hash (head) of the blockchains</text>
</g>
<!-- 12 -->
<g id="12" class="node">
<title>12</title>
<polygon fill="#1168bd" stroke="#0b4884" points="841,-215 484,-215 484,-56 841,-56 841,-215"/>
<text text-anchor="start" x="599" y="-166.8" font-family="Arial" font-size="34.00" fill="#ffffff">VM&#45;Lets</text>
<text text-anchor="start" x="585" y="-144.8" font-family="Arial" font-size="19.00" fill="#ffffff">[Software System]</text>
<text text-anchor="start" x="513" y="-107.8" font-family="Arial" font-size="24.00" fill="#ffffff">Programmable and scalable</text>
<text text-anchor="start" x="588" y="-83.8" font-family="Arial" font-size="24.00" fill="#ffffff">execution unit</text>
</g>
<!-- 12&#45;&gt;11 -->
<g id="21" class="edge">
<title>12&#45;&gt;11</title>
<path fill="none" stroke="#707070" d="M841.19,-135.5C936.16,-135.5 1053.44,-135.5 1151.82,-135.5"/>
<polygon fill="#707070" stroke="#707070" points="1151.88,-139 1161.88,-135.5 1151.88,-132 1151.88,-139"/>
<text text-anchor="start" x="893" y="-194.3" font-family="Arial" font-size="24.00" fill="#707070">2. Asks for the latest</text>
<text text-anchor="start" x="877" y="-168.3" font-family="Arial" font-size="24.00" fill="#707070">transaction at the given</text>
<text text-anchor="start" x="946" y="-142.3" font-family="Arial" font-size="24.00" fill="#707070">timestamp</text>
</g>
<!-- 9 -->
<g id="9" class="node">
<title>9</title>
<polygon fill="#08427b" stroke="#052e56" points="206,-184 0,-184 0,-87 206,-87 206,-184"/>
<text text-anchor="start" x="29" y="-135.8" font-family="Arial" font-size="34.00" fill="#ffffff">Customer</text>
<text text-anchor="start" x="67.5" y="-113.8" font-family="Arial" font-size="19.00" fill="#ffffff">[Person]</text>
</g>
<!-- 9&#45;&gt;12 -->
<g id="48" class="edge">
<title>9&#45;&gt;12</title>
<path fill="none" stroke="#707070" d="M206.25,-135.5C280.94,-135.5 384.34,-135.5 473.73,-135.5"/>
<polygon fill="#707070" stroke="#707070" points="474,-139 484,-135.5 474,-132 474,-139"/>
<text text-anchor="start" x="260.5" y="-220.3" font-family="Arial" font-size="24.00" fill="#707070">1. Requests the</text>
<text text-anchor="start" x="242" y="-194.3" font-family="Arial" font-size="24.00" fill="#707070">information about a</text>
<text text-anchor="start" x="246.5" y="-168.3" font-family="Arial" font-size="24.00" fill="#707070">material at a given</text>
<text text-anchor="start" x="289.5" y="-142.3" font-family="Arial" font-size="24.00" fill="#707070">timestamp</text>
</g>
</g>
</svg>
