<?xml version="1.0" encoding="UTF-8" standalone="no"?>
<!DOCTYPE svg PUBLIC "-//W3C//DTD SVG 1.1//EN"
 "http://www.w3.org/Graphics/SVG/1.1/DTD/svg11.dtd">
<!-- Generated by graphviz version 2.49.1 (20210923.0004)
 -->
<!-- Pages: 1 -->
<svg width="1301pt" height="654pt"
 viewBox="0.00 0.00 1301.00 654.00" xmlns="http://www.w3.org/2000/svg" xmlns:xlink="http://www.w3.org/1999/xlink">
<g id="graph0" class="graph" transform="scale(1 1) rotate(0) translate(4 650)">
<polygon fill="white" stroke="transparent" points="-4,4 -4,-650 1297,-650 1297,4 -4,4"/>
<text text-anchor="start" x="448" y="-11.8" font-family="Arial" font-size="34.00">VM&#45;Lets &#45; System Context</text>
<g id="clust1" class="cluster">
<title>cluster_enterprise</title>
<polygon fill="none" stroke="#444444" points="8,-64 8,-638 1285,-638 1285,-64 8,-64"/>
<text text-anchor="start" x="592" y="-92.8" font-family="Arial" font-size="24.00" fill="#444444">Zenbridge</text>
<text text-anchor="start" x="597.5" y="-72.8" font-family="Arial" font-size="19.00" fill="#444444">[Enterprise]</text>
</g>
<g id="clust2" class="cluster">
<title>cluster_group_EBSI</title>
<polygon fill="none" stroke="#cccccc" points="33,-164 33,-490 1260,-490 1260,-164 33,-164"/>
<text text-anchor="start" x="619" y="-192.8" font-family="Arial" font-size="24.00" fill="#cccccc">EBSI</text>
<text text-anchor="start" x="614.5" y="-172.8" font-family="Arial" font-size="19.00" fill="#cccccc">[Group]</text>
</g>
<!-- 1 -->
<g id="1" class="node">
<title>1</title>
<polygon fill="#1168bd" stroke="#0b4884" points="1235,-443.5 1022,-443.5 1022,-346.5 1235,-346.5 1235,-443.5"/>
<text text-anchor="start" x="1061" y="-395.3" font-family="Arial" font-size="34.00" fill="#ffffff">Ledger 0</text>
<text text-anchor="start" x="1051" y="-373.3" font-family="Arial" font-size="19.00" fill="#ffffff">[Software System]</text>
</g>
<!-- 2 -->
<g id="2" class="node">
<title>2</title>
<polygon fill="#1168bd" stroke="#0b4884" points="669,-464.5 456,-464.5 456,-367.5 669,-367.5 669,-464.5"/>
<text text-anchor="start" x="499" y="-416.3" font-family="Arial" font-size="34.00" fill="#ffffff">VM&#45;Lets</text>
<text text-anchor="start" x="485" y="-394.3" font-family="Arial" font-size="19.00" fill="#ffffff">[Software System]</text>
</g>
<!-- 2&#45;&gt;1 -->
<g id="6" class="edge">
<title>2&#45;&gt;1</title>
<path fill="none" stroke="#707070" stroke-dasharray="5,2" d="M669.31,-370.91C681.18,-367.27 693.23,-364.17 705,-362 827.82,-339.36 861.93,-347.72 986,-362 994.47,-362.97 1003.16,-364.27 1011.88,-365.77"/>
<polygon fill="#707070" stroke="#707070" points="1011.26,-369.22 1021.72,-367.56 1012.51,-362.33 1011.26,-369.22"/>
<text text-anchor="start" x="705" y="-394.8" font-family="Arial" font-size="24.00" fill="#707070">Knows the last transaction</text>
<text text-anchor="start" x="734.5" y="-368.8" font-family="Arial" font-size="24.00" fill="#707070">at a given timestamp</text>
</g>
<!-- 4 -->
<g id="4" class="node">
<title>4</title>
<polygon fill="#1168bd" stroke="#0b4884" points="1235,-612.5 1022,-612.5 1022,-515.5 1235,-515.5 1235,-612.5"/>
<text text-anchor="start" x="1061" y="-564.3" font-family="Arial" font-size="34.00" fill="#ffffff">Ledger 1</text>
<text text-anchor="start" x="1051" y="-542.3" font-family="Arial" font-size="19.00" fill="#ffffff">[Software System]</text>
</g>
<!-- 2&#45;&gt;4 -->
<g id="5" class="edge">
<title>2&#45;&gt;4</title>
<path fill="none" stroke="#707070" stroke-dasharray="5,2" d="M669.39,-437.13C755.36,-455.11 879.38,-482.9 986,-514 994.54,-516.49 1003.32,-519.21 1012.13,-522.04"/>
<polygon fill="#707070" stroke="#707070" points="1011.08,-525.39 1021.68,-525.17 1013.26,-518.73 1011.08,-525.39"/>
</g>
<!-- 3 -->
<g id="3" class="node">
<title>3</title>
<polygon fill="#1168bd" stroke="#0b4884" points="283,-424.5 58,-424.5 58,-327.5 283,-327.5 283,-424.5"/>
<text text-anchor="start" x="87" y="-376.3" font-family="Arial" font-size="34.00" fill="#ffffff">Dashboard</text>
<text text-anchor="start" x="93" y="-354.3" font-family="Arial" font-size="19.00" fill="#ffffff">[Software System]</text>
</g>
<!-- 3&#45;&gt;2 -->
<g id="8" class="edge">
<title>3&#45;&gt;2</title>
<path fill="none" stroke="#707070" stroke-dasharray="5,2" d="M283.18,-328.4C326.32,-316.19 375.84,-309.79 420,-323 446.72,-330.99 473.07,-345.84 495.66,-361.36"/>
<polygon fill="#707070" stroke="#707070" points="493.93,-364.42 504.12,-367.32 497.96,-358.7 493.93,-364.42"/>
<text text-anchor="start" x="319" y="-329.8" font-family="Arial" font-size="24.00" fill="#707070">Schedule</text>
</g>
<!-- 3&#45;&gt;2 -->
<g id="9" class="edge">
<title>3&#45;&gt;2</title>
<path fill="none" stroke="#707070" stroke-dasharray="5,2" d="M283.26,-387.46C334.11,-392.68 394.27,-398.85 445.61,-404.11"/>
<polygon fill="#707070" stroke="#707070" points="445.45,-407.62 455.76,-405.15 446.17,-400.65 445.45,-407.62"/>
<text text-anchor="start" x="326" y="-406.8" font-family="Arial" font-size="24.00" fill="#707070">Execute</text>
</g>
<!-- 4&#45;&gt;2 -->
<g id="7" class="edge">
<title>4&#45;&gt;2</title>
<path fill="none" stroke="#707070" stroke-dasharray="5,2" d="M1021.99,-558.35C934.88,-551.15 809.11,-534.84 705,-498 684.46,-490.73 663.51,-480.45 644.26,-469.62"/>
<polygon fill="#707070" stroke="#707070" points="645.95,-466.55 635.54,-464.61 642.47,-472.63 645.95,-466.55"/>
</g>
</g>
</svg>
