<?xml version="1.0" encoding="UTF-8" standalone="no"?>
<!DOCTYPE svg PUBLIC "-//W3C//DTD SVG 1.1//EN"
 "http://www.w3.org/Graphics/SVG/1.1/DTD/svg11.dtd">
<!-- Generated by graphviz version 2.49.1 (20210923.0004)
 -->
<!-- Pages: 1 -->
<svg width="1593pt" height="654pt"
 viewBox="0.00 0.00 1593.00 654.00" xmlns="http://www.w3.org/2000/svg" xmlns:xlink="http://www.w3.org/1999/xlink">
<g id="graph0" class="graph" transform="scale(1 1) rotate(0) translate(4 650)">
<polygon fill="white" stroke="transparent" points="-4,4 -4,-650 1589,-650 1589,4 -4,4"/>
<text text-anchor="start" x="594" y="-11.8" font-family="Arial" font-size="34.00">VM&#45;Lets &#45; System Context</text>
<g id="clust1" class="cluster">
<title>cluster_enterprise</title>
<polygon fill="none" stroke="#444444" points="8,-64 8,-638 1577,-638 1577,-64 8,-64"/>
<text text-anchor="start" x="738" y="-92.8" font-family="Arial" font-size="24.00" fill="#444444">Zenbridge</text>
<text text-anchor="start" x="743.5" y="-72.8" font-family="Arial" font-size="19.00" fill="#444444">[Enterprise]</text>
</g>
<g id="clust2" class="cluster">
<title>cluster_group_EBSI</title>
<polygon fill="none" stroke="#cccccc" points="33,-164 33,-490 1552,-490 1552,-164 33,-164"/>
<text text-anchor="start" x="765" y="-192.8" font-family="Arial" font-size="24.00" fill="#cccccc">EBSI</text>
<text text-anchor="start" x="760.5" y="-172.8" font-family="Arial" font-size="19.00" fill="#cccccc">[Group]</text>
</g>
<!-- 11 -->
<g id="11" class="node">
<title>11</title>
<polygon fill="#1168bd" stroke="#0b4884" points="1527,-440.5 1142,-440.5 1142,-281.5 1527,-281.5 1527,-440.5"/>
<text text-anchor="start" x="1267" y="-392.3" font-family="Arial" font-size="34.00" fill="#ffffff">Ledger 0</text>
<text text-anchor="start" x="1257" y="-370.3" font-family="Arial" font-size="19.00" fill="#ffffff">[Software System]</text>
<text text-anchor="start" x="1191" y="-333.3" font-family="Arial" font-size="24.00" fill="#ffffff">Stores only the latest block</text>
<text text-anchor="start" x="1171" y="-309.3" font-family="Arial" font-size="24.00" fill="#ffffff">hash (head) of the blockchains</text>
</g>
<!-- 12 -->
<g id="12" class="node">
<title>12</title>
<polygon fill="#1168bd" stroke="#0b4884" points="813,-464.5 456,-464.5 456,-305.5 813,-305.5 813,-464.5"/>
<text text-anchor="start" x="571" y="-416.3" font-family="Arial" font-size="34.00" fill="#ffffff">VM&#45;Lets</text>
<text text-anchor="start" x="557" y="-394.3" font-family="Arial" font-size="19.00" fill="#ffffff">[Software System]</text>
<text text-anchor="start" x="485" y="-357.3" font-family="Arial" font-size="24.00" fill="#ffffff">Programmable and scalable</text>
<text text-anchor="start" x="560" y="-333.3" font-family="Arial" font-size="24.00" fill="#ffffff">execution unit</text>
</g>
<!-- 12&#45;&gt;11 -->
<g id="21" class="edge">
<title>12&#45;&gt;11</title>
<path fill="none" stroke="#707070" d="M754.66,-305.46C784.28,-289.61 816.81,-275.3 849,-267 959.6,-238.47 993.96,-244.77 1106,-267 1120.79,-269.93 1135.82,-273.84 1150.74,-278.41"/>
<polygon fill="#707070" stroke="#707070" points="1149.94,-281.82 1160.53,-281.49 1152.05,-275.15 1149.94,-281.82"/>
<text text-anchor="start" x="849" y="-351.8" font-family="Arial" font-size="24.00" fill="#707070">Stores/Retrieve only the</text>
<text text-anchor="start" x="850" y="-325.8" font-family="Arial" font-size="24.00" fill="#707070">latest block hash (head)</text>
<text text-anchor="start" x="858" y="-299.8" font-family="Arial" font-size="24.00" fill="#707070">of the blockchains at a</text>
<text text-anchor="start" x="890" y="-273.8" font-family="Arial" font-size="24.00" fill="#707070">given timestamp</text>
</g>
<!-- 1 -->
<g id="1" class="node">
<title>1</title>
<polygon fill="#1168bd" stroke="#0b4884" points="1441,-612.5 1228,-612.5 1228,-515.5 1441,-515.5 1441,-612.5"/>
<text text-anchor="start" x="1267" y="-564.3" font-family="Arial" font-size="34.00" fill="#ffffff">Ledger 1</text>
<text text-anchor="start" x="1257" y="-542.3" font-family="Arial" font-size="19.00" fill="#ffffff">[Software System]</text>
</g>
<!-- 12&#45;&gt;1 -->
<g id="20" class="edge">
<title>12&#45;&gt;1</title>
<path fill="none" stroke="#707070" d="M813.44,-430.63C940.57,-463.23 1107.93,-506.15 1218.02,-534.38"/>
<polygon fill="#707070" stroke="#707070" points="1217.27,-537.81 1227.83,-536.9 1219.01,-531.03 1217.27,-537.81"/>
</g>
<!-- 17 -->
<g id="17" class="node">
<title>17</title>
<polygon fill="#1168bd" stroke="#0b4884" points="283,-424.5 58,-424.5 58,-327.5 283,-327.5 283,-424.5"/>
<text text-anchor="start" x="87" y="-376.3" font-family="Arial" font-size="34.00" fill="#ffffff">Dashboard</text>
<text text-anchor="start" x="93" y="-354.3" font-family="Arial" font-size="19.00" fill="#ffffff">[Software System]</text>
</g>
<!-- 17&#45;&gt;12 -->
<g id="23" class="edge">
<title>17&#45;&gt;12</title>
<path fill="none" stroke="#707070" d="M283.16,-331.39C295.11,-327.97 307.2,-325.05 319,-323 360.11,-315.84 404.13,-318.19 445.81,-325.1"/>
<polygon fill="#707070" stroke="#707070" points="445.34,-328.57 455.79,-326.85 446.54,-321.68 445.34,-328.57"/>
<text text-anchor="start" x="319" y="-329.8" font-family="Arial" font-size="24.00" fill="#707070">Schedule</text>
</g>
<!-- 17&#45;&gt;12 -->
<g id="24" class="edge">
<title>17&#45;&gt;12</title>
<path fill="none" stroke="#707070" d="M283.04,-378.17C331.81,-379.12 390.38,-380.26 445.55,-381.34"/>
<polygon fill="#707070" stroke="#707070" points="445.74,-384.84 455.81,-381.54 445.88,-377.84 445.74,-384.84"/>
<text text-anchor="start" x="326" y="-387.8" font-family="Arial" font-size="24.00" fill="#707070">Execute</text>
</g>
<!-- 1&#45;&gt;12 -->
<g id="22" class="edge">
<title>1&#45;&gt;12</title>
<path fill="none" stroke="#707070" d="M1227.92,-557.2C1128.34,-548.61 975.84,-529.84 849,-490 830.12,-484.07 810.83,-476.68 791.94,-468.59"/>
<polygon fill="#707070" stroke="#707070" points="793.27,-465.35 782.71,-464.56 790.47,-471.77 793.27,-465.35"/>
</g>
</g>
</svg>
