<?xml version="1.0" encoding="UTF-8" standalone="no"?>
<!DOCTYPE svg PUBLIC "-//W3C//DTD SVG 1.1//EN"
 "http://www.w3.org/Graphics/SVG/1.1/DTD/svg11.dtd">
<!-- Generated by graphviz version 2.49.1 (20210923.0004)
 -->
<!-- Pages: 1 -->
<svg width="948pt" height="892pt"
 viewBox="0.00 0.00 948.00 892.00" xmlns="http://www.w3.org/2000/svg" xmlns:xlink="http://www.w3.org/1999/xlink">
<g id="graph0" class="graph" transform="scale(1 1) rotate(0) translate(4 888)">
<polygon fill="white" stroke="transparent" points="-4,4 -4,-888 944,-888 944,4 -4,4"/>
<text text-anchor="start" x="323.5" y="-11.8" font-family="Arial" font-size="34.00">Phase 2B Topology</text>
<g id="clust1" class="cluster">
<title>cluster_31</title>
<polygon fill="none" stroke="#888888" points="8,-64 8,-876 932,-876 932,-64 8,-64"/>
<text text-anchor="start" x="441.5" y="-92.8" font-family="Arial" font-size="24.00" fill="#000000">EPIC</text>
<text text-anchor="start" x="388.5" y="-72.8" font-family="Arial" font-size="19.00" fill="#000000">[Deployment Node]</text>
</g>
<g id="clust2" class="cluster">
<title>cluster_32</title>
<polygon fill="none" stroke="#888888" points="318,-140 318,-338 582,-338 582,-140 318,-140"/>
<text text-anchor="start" x="436.5" y="-168.8" font-family="Arial" font-size="24.00" fill="#000000">L1</text>
<text text-anchor="start" x="368.5" y="-148.8" font-family="Arial" font-size="19.00" fill="#000000">[Deployment Node]</text>
</g>
<g id="clust3" class="cluster">
<title>cluster_34</title>
<polygon fill="none" stroke="#888888" points="33,-346 33,-851 907,-851 907,-346 33,-346"/>
<text text-anchor="start" x="335.5" y="-374.8" font-family="Arial" font-size="24.00" fill="#000000">Service Delivery Network</text>
<text text-anchor="start" x="388.5" y="-354.8" font-family="Arial" font-size="19.00" fill="#000000">[Deployment Node]</text>
</g>
<g id="clust4" class="cluster">
<title>cluster_39</title>
<polygon fill="none" stroke="#888888" points="318,-422 318,-620 582,-620 582,-422 318,-422"/>
<text text-anchor="start" x="436.5" y="-450.8" font-family="Arial" font-size="24.00" fill="#000000">L0</text>
<text text-anchor="start" x="368.5" y="-430.8" font-family="Arial" font-size="19.00" fill="#000000">[Deployment Node]</text>
</g>
<g id="clust5" class="cluster">
<title>cluster_35</title>
<polygon fill="none" stroke="#888888" points="58,-628 58,-826 882,-826 882,-628 58,-628"/>
<text text-anchor="start" x="425" y="-656.8" font-family="Arial" font-size="24.00" fill="#000000">VM&#45;Lets</text>
<text text-anchor="start" x="271.5" y="-636.8" font-family="Arial" font-size="19.00" fill="#000000">[Deployment Node: Two nodes per EU country]</text>
</g>
<!-- 33 -->
<g id="33" class="node">
<title>33</title>
<polygon fill="#1168bd" stroke="#0b4884" points="556.5,-313 343.5,-313 343.5,-216 556.5,-216 556.5,-313"/>
<text text-anchor="start" x="382.5" y="-264.8" font-family="Arial" font-size="34.00" fill="#ffffff">Ledger 1</text>
<text text-anchor="start" x="372.5" y="-242.8" font-family="Arial" font-size="19.00" fill="#ffffff">[Software System]</text>
</g>
<!-- 40 -->
<g id="40" class="node">
<title>40</title>
<polygon fill="#1168bd" stroke="#0b4884" points="556.5,-595 343.5,-595 343.5,-498 556.5,-498 556.5,-595"/>
<text text-anchor="start" x="382.5" y="-546.8" font-family="Arial" font-size="34.00" fill="#ffffff">Ledger 0</text>
<text text-anchor="start" x="372.5" y="-524.8" font-family="Arial" font-size="19.00" fill="#ffffff">[Software System]</text>
</g>
<!-- 40&#45;&gt;33 -->
<g id="41" class="edge">
<title>40&#45;&gt;33</title>
<path fill="none" stroke="#707070" d="M450,-346C450,-344 450,-342 450,-340"/>
<polygon fill="#707070" stroke="#707070" points="453.5,-348 450,-338 446.5,-348 453.5,-348"/>
</g>
<!-- 38 -->
<g id="38" class="node">
<title>38</title>
<polygon fill="#438dd5" stroke="#2e6295" points="857,-801 621,-801 621,-704 857,-704 857,-801"/>
<text text-anchor="start" x="650" y="-752.8" font-family="Arial" font-size="34.00" fill="#ffffff">BigchainDB</text>
<text text-anchor="start" x="692.5" y="-730.8" font-family="Arial" font-size="19.00" fill="#ffffff">[Container]</text>
</g>
<!-- 37 -->
<g id="37" class="node">
<title>37</title>
<polygon fill="#438dd5" stroke="#2e6295" points="549,-801 351,-801 351,-704 549,-704 549,-801"/>
<text text-anchor="start" x="380" y="-752.8" font-family="Arial" font-size="34.00" fill="#ffffff">Tarantool</text>
<text text-anchor="start" x="403.5" y="-730.8" font-family="Arial" font-size="19.00" fill="#ffffff">[Container]</text>
</g>
<!-- 37&#45;&gt;40 -->
<g id="42" class="edge">
<title>37&#45;&gt;40</title>
<path fill="none" stroke="#707070" d="M450,-628C450,-626 450,-624 450,-622"/>
<polygon fill="#707070" stroke="#707070" points="453.5,-630 450,-620 446.5,-630 453.5,-630"/>
</g>
<!-- 36 -->
<g id="36" class="node">
<title>36</title>
<polygon fill="#438dd5" stroke="#2e6295" points="278.5,-801 83.5,-801 83.5,-704 278.5,-704 278.5,-801"/>
<text text-anchor="start" x="112.5" y="-752.8" font-family="Arial" font-size="34.00" fill="#ffffff">Zenroom</text>
<text text-anchor="start" x="134.5" y="-730.8" font-family="Arial" font-size="19.00" fill="#ffffff">[Container]</text>
</g>
</g>
</svg>
