<?xml version="1.0" encoding="UTF-8" standalone="no"?>
<!DOCTYPE svg PUBLIC "-//W3C//DTD SVG 1.1//EN"
 "http://www.w3.org/Graphics/SVG/1.1/DTD/svg11.dtd">
<!-- Generated by graphviz version 2.49.1 (20210923.0004)
 -->
<!-- Pages: 1 -->
<svg width="1393pt" height="654pt"
 viewBox="0.00 0.00 1393.00 654.00" xmlns="http://www.w3.org/2000/svg" xmlns:xlink="http://www.w3.org/1999/xlink">
<g id="graph0" class="graph" transform="scale(1 1) rotate(0) translate(4 650)">
<polygon fill="white" stroke="transparent" points="-4,4 -4,-650 1389,-650 1389,4 -4,4"/>
<text text-anchor="start" x="494" y="-11.8" font-family="Arial" font-size="34.00">VM&#45;Lets &#45; System Context</text>
<g id="clust1" class="cluster">
<title>cluster_enterprise</title>
<polygon fill="none" stroke="#444444" points="8,-64 8,-638 1377,-638 1377,-64 8,-64"/>
<text text-anchor="start" x="638" y="-92.8" font-family="Arial" font-size="24.00" fill="#444444">Zenbridge</text>
<text text-anchor="start" x="643.5" y="-72.8" font-family="Arial" font-size="19.00" fill="#444444">[Enterprise]</text>
</g>
<g id="clust2" class="cluster">
<title>cluster_group_EBSI</title>
<polygon fill="none" stroke="#cccccc" points="33,-164 33,-490 1352,-490 1352,-164 33,-164"/>
<text text-anchor="start" x="665" y="-192.8" font-family="Arial" font-size="24.00" fill="#cccccc">EBSI</text>
<text text-anchor="start" x="660.5" y="-172.8" font-family="Arial" font-size="19.00" fill="#cccccc">[Group]</text>
</g>
<!-- 11 -->
<g id="11" class="node">
<title>11</title>
<polygon fill="#1168bd" stroke="#0b4884" points="283,-424.5 58,-424.5 58,-327.5 283,-327.5 283,-424.5"/>
<text text-anchor="start" x="87" y="-376.3" font-family="Arial" font-size="34.00" fill="#ffffff">Dashboard</text>
<text text-anchor="start" x="93" y="-354.3" font-family="Arial" font-size="19.00" fill="#ffffff">[Software System]</text>
</g>
<!-- 6 -->
<g id="6" class="node">
<title>6</title>
<polygon fill="#1168bd" stroke="#0b4884" points="813,-464.5 456,-464.5 456,-305.5 813,-305.5 813,-464.5"/>
<text text-anchor="start" x="571" y="-416.3" font-family="Arial" font-size="34.00" fill="#ffffff">VM&#45;Lets</text>
<text text-anchor="start" x="557" y="-394.3" font-family="Arial" font-size="19.00" fill="#ffffff">[Software System]</text>
<text text-anchor="start" x="485" y="-357.3" font-family="Arial" font-size="24.00" fill="#ffffff">Programmable and scalable</text>
<text text-anchor="start" x="560" y="-333.3" font-family="Arial" font-size="24.00" fill="#ffffff">execution unit</text>
</g>
<!-- 11&#45;&gt;6 -->
<g id="17" class="edge">
<title>11&#45;&gt;6</title>
<path fill="none" stroke="#707070" d="M283.16,-331.39C295.11,-327.97 307.2,-325.05 319,-323 360.11,-315.84 404.13,-318.19 445.81,-325.1"/>
<polygon fill="#707070" stroke="#707070" points="445.34,-328.57 455.79,-326.85 446.54,-321.68 445.34,-328.57"/>
<text text-anchor="start" x="319" y="-329.8" font-family="Arial" font-size="24.00" fill="#707070">Schedule</text>
</g>
<!-- 11&#45;&gt;6 -->
<g id="18" class="edge">
<title>11&#45;&gt;6</title>
<path fill="none" stroke="#707070" d="M283.04,-378.17C331.81,-379.12 390.38,-380.26 445.55,-381.34"/>
<polygon fill="#707070" stroke="#707070" points="445.74,-384.84 455.81,-381.54 445.88,-377.84 445.74,-384.84"/>
<text text-anchor="start" x="326" y="-387.8" font-family="Arial" font-size="24.00" fill="#707070">Execute</text>
</g>
<!-- 5 -->
<g id="5" class="node">
<title>5</title>
<polygon fill="#1168bd" stroke="#0b4884" points="1327,-433.5 1114,-433.5 1114,-336.5 1327,-336.5 1327,-433.5"/>
<text text-anchor="start" x="1153" y="-385.3" font-family="Arial" font-size="34.00" fill="#ffffff">Ledger 0</text>
<text text-anchor="start" x="1143" y="-363.3" font-family="Arial" font-size="19.00" fill="#ffffff">[Software System]</text>
</g>
<!-- 6&#45;&gt;5 -->
<g id="15" class="edge">
<title>6&#45;&gt;5</title>
<path fill="none" stroke="#707070" d="M813.05,-323.97C825.12,-321.21 837.18,-318.84 849,-317 949.57,-301.37 978.76,-294.39 1078,-317 1093.51,-320.53 1109.31,-325.99 1124.46,-332.32"/>
<polygon fill="#707070" stroke="#707070" points="1123.23,-335.6 1133.79,-336.35 1126.01,-329.17 1123.23,-335.6"/>
<text text-anchor="start" x="877" y="-375.8" font-family="Arial" font-size="24.00" fill="#707070">Retrives the last</text>
<text text-anchor="start" x="849" y="-349.8" font-family="Arial" font-size="24.00" fill="#707070">transaction at a given</text>
<text text-anchor="start" x="908" y="-323.8" font-family="Arial" font-size="24.00" fill="#707070">timestamp</text>
</g>
<!-- 1 -->
<g id="1" class="node">
<title>1</title>
<polygon fill="#1168bd" stroke="#0b4884" points="1327,-612.5 1114,-612.5 1114,-515.5 1327,-515.5 1327,-612.5"/>
<text text-anchor="start" x="1153" y="-564.3" font-family="Arial" font-size="34.00" fill="#ffffff">Ledger 1</text>
<text text-anchor="start" x="1143" y="-542.3" font-family="Arial" font-size="19.00" fill="#ffffff">[Software System]</text>
</g>
<!-- 6&#45;&gt;1 -->
<g id="14" class="edge">
<title>6&#45;&gt;1</title>
<path fill="none" stroke="#707070" d="M813.1,-439.43C907.52,-468.37 1020.89,-503.12 1103.87,-528.56"/>
<polygon fill="#707070" stroke="#707070" points="1103,-531.95 1113.58,-531.54 1105.05,-525.26 1103,-531.95"/>
</g>
<!-- 1&#45;&gt;6 -->
<g id="16" class="edge">
<title>1&#45;&gt;6</title>
<path fill="none" stroke="#707070" d="M1113.74,-556.25C1038.31,-548.42 935.37,-532.98 849,-503 823.25,-494.07 796.96,-482.17 772.03,-469.36"/>
<polygon fill="#707070" stroke="#707070" points="773.39,-466.12 762.9,-464.6 770.15,-472.33 773.39,-466.12"/>
</g>
</g>
</svg>
